<svg id="visual" viewBox="0 0 900 900" width="900" height="900" xmlns="http://www.w3.org/2000/svg" xmlns:xlink="http://www.w3.org/1999/xlink" version="1.1"><g transform="translate(436.9213881674163 476.56290488529055)"><path d="M231.2 -319.9C286 -278.3 307.5 -192.6 331.8 -109.8C356 -26.9 383 53.2 371 130C359.1 206.9 308.3 280.6 240 295.9C171.6 311.2 85.8 268.1 8.2 256.8C-69.4 245.5 -138.7 265.9 -192.5 245.9C-246.2 225.8 -284.3 165.3 -313.2 96.9C-342.1 28.5 -361.7 -47.7 -335.5 -103C-309.3 -158.4 -237.2 -192.9 -173.7 -231.5C-110.1 -270.2 -55.1 -313.1 16.6 -335.9C88.2 -358.7 176.3 -361.4 231.2 -319.9" fill="#77541d"></path></g></svg>