<svg id="visual" viewBox="0 0 900 900" width="900" height="900" xmlns="http://www.w3.org/2000/svg" xmlns:xlink="http://www.w3.org/1999/xlink" version="1.1"><g transform="translate(384.79265066188884 445.5738600108248)"><path d="M244.8 -319.7C315.9 -285.2 371.5 -212 399.4 -129.1C427.3 -46.1 427.7 46.5 397.8 126.5C368 206.5 308 274 236.7 312.9C165.4 351.9 82.7 362.5 12.9 344.7C-56.8 326.9 -113.6 280.7 -153.3 231.5C-192.9 182.2 -215.3 129.7 -242.7 72.5C-270.1 15.2 -302.4 -46.8 -284.9 -90C-267.3 -133.2 -199.8 -157.6 -144 -197.2C-88.2 -236.7 -44.1 -291.3 21.4 -320.7C86.8 -350.1 173.6 -354.3 244.8 -319.7" fill="#030029"></path></g></svg>