<svg id="visual" viewBox="0 0 900 900" width="900" height="900" xmlns="http://www.w3.org/2000/svg" xmlns:xlink="http://www.w3.org/1999/xlink" version="1.1"><g transform="translate(409.2915576965601 456.68396752673624)"><path d="M246.6 -337.4C316.8 -288.3 369 -212.6 392.8 -129.9C416.6 -47.2 411.8 42.5 379.8 117.9C347.8 193.3 288.5 254.4 220.7 303.6C152.8 352.7 76.4 389.8 10.2 375.8C-56 361.8 -112.1 296.6 -162.6 241.8C-213.2 187.1 -258.3 142.8 -290.2 84.8C-322.1 26.8 -340.8 -45 -312.3 -91.8C-283.8 -138.6 -208 -160.3 -148.1 -212.7C-88.2 -265 -44.1 -348 22 -378.3C88.2 -408.7 176.3 -386.4 246.6 -337.4" fill="#09200d"></path></g></svg>