<svg id="visual" viewBox="0 0 450 900" width="450" height="900" xmlns="http://www.w3.org/2000/svg" xmlns:xlink="http://www.w3.org/1999/xlink" version="1.1"><rect x="0" y="0" width="450" height="900" fill="#ffffff"></rect><path d="M130 0L121.7 15C113.3 30 96.7 60 85.8 90C75 120 70 150 76.2 180C82.3 210 99.7 240 104.3 270C109 300 101 330 103 360C105 390 117 420 119.2 450C121.3 480 113.7 510 113.2 540C112.7 570 119.3 600 129.5 630C139.7 660 153.3 690 150.8 720C148.3 750 129.7 780 117.5 810C105.3 840 99.7 870 96.8 885L94 900L0 900L0 885C0 870 0 840 0 810C0 780 0 750 0 720C0 690 0 660 0 630C0 600 0 570 0 540C0 510 0 480 0 450C0 420 0 390 0 360C0 330 0 300 0 270C0 240 0 210 0 180C0 150 0 120 0 90C0 60 0 30 0 15L0 0Z" fill="#77541d"></path><path d="M52 0L56.3 15C60.7 30 69.3 60 72.5 90C75.7 120 73.3 150 73.2 180C73 210 75 240 81.5 270C88 300 99 330 102.7 360C106.3 390 102.7 420 96.2 450C89.7 480 80.3 510 73.7 540C67 570 63 600 69.8 630C76.7 660 94.3 690 100.3 720C106.3 750 100.7 780 100.8 810C101 840 107 870 110 885L113 900L0 900L0 885C0 870 0 840 0 810C0 780 0 750 0 720C0 690 0 660 0 630C0 600 0 570 0 540C0 510 0 480 0 450C0 420 0 390 0 360C0 330 0 300 0 270C0 240 0 210 0 180C0 150 0 120 0 90C0 60 0 30 0 15L0 0Z" fill="#6a2827"></path><path d="M77 0L78.5 15C80 30 83 60 86.5 90C90 120 94 150 88.5 180C83 210 68 240 60.3 270C52.7 300 52.3 330 58.5 360C64.7 390 77.3 420 78 450C78.7 480 67.3 510 60.7 540C54 570 52 600 48.8 630C45.7 660 41.3 690 43.3 720C45.3 750 53.7 780 61.2 810C68.7 840 75.3 870 78.7 885L82 900L0 900L0 885C0 870 0 840 0 810C0 780 0 750 0 720C0 690 0 660 0 630C0 600 0 570 0 540C0 510 0 480 0 450C0 420 0 390 0 360C0 330 0 300 0 270C0 240 0 210 0 180C0 150 0 120 0 90C0 60 0 30 0 15L0 0Z" fill="#420f31"></path><path d="M40 0L36.5 15C33 30 26 60 23 90C20 120 21 150 19.7 180C18.3 210 14.7 240 18.3 270C22 300 33 330 32.8 360C32.7 390 21.3 420 23.3 450C25.3 480 40.7 510 50 540C59.3 570 62.7 600 57.7 630C52.7 660 39.3 690 31.8 720C24.3 750 22.7 780 25.8 810C29 840 37 870 41 885L45 900L0 900L0 885C0 870 0 840 0 810C0 780 0 750 0 720C0 690 0 660 0 630C0 600 0 570 0 540C0 510 0 480 0 450C0 420 0 390 0 360C0 330 0 300 0 270C0 240 0 210 0 180C0 150 0 120 0 90C0 60 0 30 0 15L0 0Z" fill="#030029"></path></svg>