<svg id="visual" viewBox="0 0 2000 400" width="2000" height="400" xmlns="http://www.w3.org/2000/svg" xmlns:xlink="http://www.w3.org/1999/xlink" version="1.1"><path d="M0 252L22.2 262.2C44.3 272.3 88.7 292.7 133.2 289.2C177.7 285.7 222.3 258.3 266.8 249.7C311.3 241 355.7 251 400 252.3C444.3 253.7 488.7 246.3 533.2 244.3C577.7 242.3 622.3 245.7 666.8 257.2C711.3 268.7 755.7 288.3 800 295C844.3 301.7 888.7 295.3 933.2 291.5C977.7 287.7 1022.3 286.3 1066.8 278.2C1111.3 270 1155.7 255 1200 263.5C1244.3 272 1288.7 304 1333.2 309.2C1377.7 314.3 1422.3 292.7 1466.8 281.8C1511.3 271 1555.7 271 1600 262.3C1644.3 253.7 1688.7 236.3 1733.2 246.8C1777.7 257.3 1822.3 295.7 1866.8 305.5C1911.3 315.3 1955.7 296.7 1977.8 287.3L2000 278L2000 0L1977.8 0C1955.7 0 1911.3 0 1866.8 0C1822.3 0 1777.7 0 1733.2 0C1688.7 0 1644.3 0 1600 0C1555.7 0 1511.3 0 1466.8 0C1422.3 0 1377.7 0 1333.2 0C1288.7 0 1244.3 0 1200 0C1155.7 0 1111.3 0 1066.8 0C1022.3 0 977.7 0 933.2 0C888.7 0 844.3 0 800 0C755.7 0 711.3 0 666.8 0C622.3 0 577.7 0 533.2 0C488.7 0 444.3 0 400 0C355.7 0 311.3 0 266.8 0C222.3 0 177.7 0 133.2 0C88.7 0 44.3 0 22.2 0L0 0Z" fill="#988059"></path><path d="M0 204L22.2 213.2C44.3 222.3 88.7 240.7 133.2 236.5C177.7 232.3 222.3 205.7 266.8 194.5C311.3 183.3 355.7 187.7 400 188.5C444.3 189.3 488.7 186.7 533.2 198C577.7 209.3 622.3 234.7 666.8 235C711.3 235.3 755.7 210.7 800 204.3C844.3 198 888.7 210 933.2 217C977.7 224 1022.3 226 1066.8 219.7C1111.3 213.3 1155.7 198.7 1200 193.3C1244.3 188 1288.7 192 1333.2 191.5C1377.7 191 1422.3 186 1466.8 190.5C1511.3 195 1555.7 209 1600 211.2C1644.3 213.3 1688.7 203.7 1733.2 209.3C1777.7 215 1822.3 236 1866.8 240.8C1911.3 245.7 1955.7 234.3 1977.8 228.7L2000 223L2000 0L1977.8 0C1955.7 0 1911.3 0 1866.8 0C1822.3 0 1777.7 0 1733.2 0C1688.7 0 1644.3 0 1600 0C1555.7 0 1511.3 0 1466.8 0C1422.3 0 1377.7 0 1333.2 0C1288.7 0 1244.3 0 1200 0C1155.7 0 1111.3 0 1066.8 0C1022.3 0 977.7 0 933.2 0C888.7 0 844.3 0 800 0C755.7 0 711.3 0 666.8 0C622.3 0 577.7 0 533.2 0C488.7 0 444.3 0 400 0C355.7 0 311.3 0 266.8 0C222.3 0 177.7 0 133.2 0C88.7 0 44.3 0 22.2 0L0 0Z" fill="#865646"></path><path d="M0 136L22.2 141.3C44.3 146.7 88.7 157.3 133.2 165.7C177.7 174 222.3 180 266.8 180.2C311.3 180.3 355.7 174.7 400 169.7C444.3 164.7 488.7 160.3 533.2 157C577.7 153.7 622.3 151.3 666.8 159.2C711.3 167 755.7 185 800 188.5C844.3 192 888.7 181 933.2 168.7C977.7 156.3 1022.3 142.7 1066.8 137.7C1111.3 132.7 1155.7 136.3 1200 138.5C1244.3 140.7 1288.7 141.3 1333.2 151.7C1377.7 162 1422.3 182 1466.8 188.2C1511.3 194.3 1555.7 186.7 1600 186C1644.3 185.3 1688.7 191.7 1733.2 190C1777.7 188.3 1822.3 178.7 1866.8 177.5C1911.3 176.3 1955.7 183.7 1977.8 187.3L2000 191L2000 0L1977.8 0C1955.7 0 1911.3 0 1866.8 0C1822.3 0 1777.7 0 1733.2 0C1688.7 0 1644.3 0 1600 0C1555.7 0 1511.3 0 1466.8 0C1422.3 0 1377.7 0 1333.2 0C1288.7 0 1244.3 0 1200 0C1155.7 0 1111.3 0 1066.8 0C1022.3 0 977.7 0 933.2 0C888.7 0 844.3 0 800 0C755.7 0 711.3 0 666.8 0C622.3 0 577.7 0 533.2 0C488.7 0 444.3 0 400 0C355.7 0 311.3 0 266.8 0C222.3 0 177.7 0 133.2 0C88.7 0 44.3 0 22.2 0L0 0Z" fill="#67323e"></path><path d="M0 138L22.2 139.7C44.3 141.3 88.7 144.7 133.2 145.5C177.7 146.3 222.3 144.7 266.8 142.5C311.3 140.3 355.7 137.7 400 131.3C444.3 125 488.7 115 533.2 114.3C577.7 113.7 622.3 122.3 666.8 126.5C711.3 130.7 755.7 130.3 800 127.8C844.3 125.3 888.7 120.7 933.2 124.2C977.7 127.7 1022.3 139.3 1066.8 138.3C1111.3 137.3 1155.7 123.7 1200 119.5C1244.3 115.3 1288.7 120.7 1333.2 126.7C1377.7 132.7 1422.3 139.3 1466.8 133C1511.3 126.7 1555.7 107.3 1600 107.2C1644.3 107 1688.7 126 1733.2 134C1777.7 142 1822.3 139 1866.8 137.7C1911.3 136.3 1955.7 136.7 1977.8 136.8L2000 137L2000 0L1977.8 0C1955.7 0 1911.3 0 1866.8 0C1822.3 0 1777.7 0 1733.2 0C1688.7 0 1644.3 0 1600 0C1555.7 0 1511.3 0 1466.8 0C1422.3 0 1377.7 0 1333.2 0C1288.7 0 1244.3 0 1200 0C1155.7 0 1111.3 0 1066.8 0C1022.3 0 977.7 0 933.2 0C888.7 0 844.3 0 800 0C755.7 0 711.3 0 666.8 0C622.3 0 577.7 0 533.2 0C488.7 0 444.3 0 400 0C355.7 0 311.3 0 266.8 0C222.3 0 177.7 0 133.2 0C88.7 0 44.3 0 22.2 0L0 0Z" fill="#3c1837"></path><path d="M0 75L22.2 70C44.3 65 88.7 55 133.2 48.2C177.7 41.3 222.3 37.7 266.8 45.3C311.3 53 355.7 72 400 75.5C444.3 79 488.7 67 533.2 62.7C577.7 58.3 622.3 61.7 666.8 61.2C711.3 60.7 755.7 56.3 800 53.8C844.3 51.3 888.7 50.7 933.2 49.8C977.7 49 1022.3 48 1066.8 48.5C1111.3 49 1155.7 51 1200 53.5C1244.3 56 1288.7 59 1333.2 58C1377.7 57 1422.3 52 1466.8 53.8C1511.3 55.7 1555.7 64.3 1600 66.8C1644.3 69.3 1688.7 65.7 1733.2 65.8C1777.7 66 1822.3 70 1866.8 67.2C1911.3 64.3 1955.7 54.7 1977.8 49.8L2000 45L2000 0L1977.8 0C1955.7 0 1911.3 0 1866.8 0C1822.3 0 1777.7 0 1733.2 0C1688.7 0 1644.3 0 1600 0C1555.7 0 1511.3 0 1466.8 0C1422.3 0 1377.7 0 1333.2 0C1288.7 0 1244.3 0 1200 0C1155.7 0 1111.3 0 1066.8 0C1022.3 0 977.7 0 933.2 0C888.7 0 844.3 0 800 0C755.7 0 711.3 0 666.8 0C622.3 0 577.7 0 533.2 0C488.7 0 444.3 0 400 0C355.7 0 311.3 0 266.8 0C222.3 0 177.7 0 133.2 0C88.7 0 44.3 0 22.2 0L0 0Z" fill="#030029"></path></svg>