<svg id="visual" viewBox="0 0 2000 400" width="2000" height="400" xmlns="http://www.w3.org/2000/svg" xmlns:xlink="http://www.w3.org/1999/xlink" version="1.1"><path d="M0 309L22.2 301.8C44.3 294.7 88.7 280.3 133.2 275.5C177.7 270.7 222.3 275.3 266.8 286.7C311.3 298 355.7 316 400 318.3C444.3 320.7 488.7 307.3 533.2 296.7C577.7 286 622.3 278 666.8 276C711.3 274 755.7 278 800 280C844.3 282 888.7 282 933.2 274.3C977.7 266.7 1022.3 251.3 1066.8 259.2C1111.3 267 1155.7 298 1200 313C1244.3 328 1288.7 327 1333.2 320.5C1377.7 314 1422.3 302 1466.8 301.5C1511.3 301 1555.7 312 1600 308C1644.3 304 1688.7 285 1733.2 286C1777.7 287 1822.3 308 1866.8 309.3C1911.3 310.7 1955.7 292.3 1977.8 283.2L2000 274L2000 0L1977.8 0C1955.7 0 1911.3 0 1866.8 0C1822.3 0 1777.7 0 1733.2 0C1688.7 0 1644.3 0 1600 0C1555.7 0 1511.3 0 1466.8 0C1422.3 0 1377.7 0 1333.2 0C1288.7 0 1244.3 0 1200 0C1155.7 0 1111.3 0 1066.8 0C1022.3 0 977.7 0 933.2 0C888.7 0 844.3 0 800 0C755.7 0 711.3 0 666.8 0C622.3 0 577.7 0 533.2 0C488.7 0 444.3 0 400 0C355.7 0 311.3 0 266.8 0C222.3 0 177.7 0 133.2 0C88.7 0 44.3 0 22.2 0L0 0Z" fill="#988059"></path><path d="M0 177L22.2 178.2C44.3 179.3 88.7 181.7 133.2 187.5C177.7 193.3 222.3 202.7 266.8 217.2C311.3 231.7 355.7 251.3 400 253.8C444.3 256.3 488.7 241.7 533.2 230C577.7 218.3 622.3 209.7 666.8 213.3C711.3 217 755.7 233 800 240.7C844.3 248.3 888.7 247.7 933.2 241.8C977.7 236 1022.3 225 1066.8 223.8C1111.3 222.7 1155.7 231.3 1200 225C1244.3 218.7 1288.7 197.3 1333.2 199.2C1377.7 201 1422.3 226 1466.8 233C1511.3 240 1555.7 229 1600 232.2C1644.3 235.3 1688.7 252.7 1733.2 257.8C1777.7 263 1822.3 256 1866.8 253.2C1911.3 250.3 1955.7 251.7 1977.8 252.3L2000 253L2000 0L1977.8 0C1955.7 0 1911.3 0 1866.8 0C1822.3 0 1777.7 0 1733.2 0C1688.7 0 1644.3 0 1600 0C1555.7 0 1511.3 0 1466.8 0C1422.3 0 1377.7 0 1333.2 0C1288.7 0 1244.3 0 1200 0C1155.7 0 1111.3 0 1066.8 0C1022.3 0 977.7 0 933.2 0C888.7 0 844.3 0 800 0C755.7 0 711.3 0 666.8 0C622.3 0 577.7 0 533.2 0C488.7 0 444.3 0 400 0C355.7 0 311.3 0 266.8 0C222.3 0 177.7 0 133.2 0C88.7 0 44.3 0 22.2 0L0 0Z" fill="#865646"></path><path d="M0 201L22.2 191C44.3 181 88.7 161 133.2 163.8C177.7 166.7 222.3 192.3 266.8 195.2C311.3 198 355.7 178 400 171.8C444.3 165.7 488.7 173.3 533.2 181C577.7 188.7 622.3 196.3 666.8 200.2C711.3 204 755.7 204 800 194.7C844.3 185.3 888.7 166.7 933.2 157.3C977.7 148 1022.3 148 1066.8 152.2C1111.3 156.3 1155.7 164.7 1200 168.3C1244.3 172 1288.7 171 1333.2 169.8C1377.7 168.7 1422.3 167.3 1466.8 166.3C1511.3 165.3 1555.7 164.7 1600 166.7C1644.3 168.7 1688.7 173.3 1733.2 170.8C1777.7 168.3 1822.3 158.7 1866.8 154C1911.3 149.3 1955.7 149.7 1977.8 149.8L2000 150L2000 0L1977.8 0C1955.7 0 1911.3 0 1866.8 0C1822.3 0 1777.7 0 1733.2 0C1688.7 0 1644.3 0 1600 0C1555.7 0 1511.3 0 1466.8 0C1422.3 0 1377.7 0 1333.2 0C1288.7 0 1244.3 0 1200 0C1155.7 0 1111.3 0 1066.8 0C1022.3 0 977.7 0 933.2 0C888.7 0 844.3 0 800 0C755.7 0 711.3 0 666.8 0C622.3 0 577.7 0 533.2 0C488.7 0 444.3 0 400 0C355.7 0 311.3 0 266.8 0C222.3 0 177.7 0 133.2 0C88.7 0 44.3 0 22.2 0L0 0Z" fill="#67323e"></path><path d="M0 85L22.2 91.7C44.3 98.3 88.7 111.7 133.2 122.3C177.7 133 222.3 141 266.8 142C311.3 143 355.7 137 400 133.3C444.3 129.7 488.7 128.3 533.2 120C577.7 111.7 622.3 96.3 666.8 88.7C711.3 81 755.7 81 800 81C844.3 81 888.7 81 933.2 81C977.7 81 1022.3 81 1066.8 84.2C1111.3 87.3 1155.7 93.7 1200 97.2C1244.3 100.7 1288.7 101.3 1333.2 101.5C1377.7 101.7 1422.3 101.3 1466.8 100.3C1511.3 99.3 1555.7 97.7 1600 94.3C1644.3 91 1688.7 86 1733.2 87.2C1777.7 88.3 1822.3 95.7 1866.8 105C1911.3 114.3 1955.7 125.7 1977.8 131.3L2000 137L2000 0L1977.8 0C1955.7 0 1911.3 0 1866.8 0C1822.3 0 1777.7 0 1733.2 0C1688.7 0 1644.3 0 1600 0C1555.7 0 1511.3 0 1466.8 0C1422.3 0 1377.7 0 1333.2 0C1288.7 0 1244.3 0 1200 0C1155.7 0 1111.3 0 1066.8 0C1022.3 0 977.7 0 933.2 0C888.7 0 844.3 0 800 0C755.7 0 711.3 0 666.8 0C622.3 0 577.7 0 533.2 0C488.7 0 444.3 0 400 0C355.7 0 311.3 0 266.8 0C222.3 0 177.7 0 133.2 0C88.7 0 44.3 0 22.2 0L0 0Z" fill="#3c1837"></path><path d="M0 42L22.2 47.3C44.3 52.7 88.7 63.3 133.2 69C177.7 74.7 222.3 75.3 266.8 75.5C311.3 75.7 355.7 75.3 400 71.5C444.3 67.7 488.7 60.3 533.2 56.5C577.7 52.7 622.3 52.3 666.8 59.2C711.3 66 755.7 80 800 87.2C844.3 94.3 888.7 94.7 933.2 84.5C977.7 74.3 1022.3 53.7 1066.8 49.7C1111.3 45.7 1155.7 58.3 1200 66.3C1244.3 74.3 1288.7 77.7 1333.2 76.8C1377.7 76 1422.3 71 1466.8 67.3C1511.3 63.7 1555.7 61.3 1600 59.3C1644.3 57.3 1688.7 55.7 1733.2 52.3C1777.7 49 1822.3 44 1866.8 44.7C1911.3 45.3 1955.7 51.7 1977.8 54.8L2000 58L2000 0L1977.8 0C1955.7 0 1911.3 0 1866.8 0C1822.3 0 1777.7 0 1733.2 0C1688.7 0 1644.3 0 1600 0C1555.7 0 1511.3 0 1466.8 0C1422.3 0 1377.7 0 1333.2 0C1288.7 0 1244.3 0 1200 0C1155.7 0 1111.3 0 1066.8 0C1022.3 0 977.7 0 933.2 0C888.7 0 844.3 0 800 0C755.7 0 711.3 0 666.8 0C622.3 0 577.7 0 533.2 0C488.7 0 444.3 0 400 0C355.7 0 311.3 0 266.8 0C222.3 0 177.7 0 133.2 0C88.7 0 44.3 0 22.2 0L0 0Z" fill="#030029"></path></svg>