<svg id="visual" viewBox="0 0 2000 400" width="2000" height="400" xmlns="http://www.w3.org/2000/svg" xmlns:xlink="http://www.w3.org/1999/xlink" version="1.1"><path d="M0 285L22.2 281.8C44.3 278.7 88.7 272.3 133.2 278C177.7 283.7 222.3 301.3 266.8 308.7C311.3 316 355.7 313 400 306.5C444.3 300 488.7 290 533.2 286.3C577.7 282.7 622.3 285.3 666.8 294.7C711.3 304 755.7 320 800 328.5C844.3 337 888.7 338 933.2 332.2C977.7 326.3 1022.3 313.7 1066.8 301.3C1111.3 289 1155.7 277 1200 279.5C1244.3 282 1288.7 299 1333.2 293C1377.7 287 1422.3 258 1466.8 252.3C1511.3 246.7 1555.7 264.3 1600 281.7C1644.3 299 1688.7 316 1733.2 312.5C1777.7 309 1822.3 285 1866.8 274C1911.3 263 1955.7 265 1977.8 266L2000 267L2000 0L1977.8 0C1955.7 0 1911.3 0 1866.8 0C1822.3 0 1777.7 0 1733.2 0C1688.7 0 1644.3 0 1600 0C1555.7 0 1511.3 0 1466.8 0C1422.3 0 1377.7 0 1333.2 0C1288.7 0 1244.3 0 1200 0C1155.7 0 1111.3 0 1066.8 0C1022.3 0 977.7 0 933.2 0C888.7 0 844.3 0 800 0C755.7 0 711.3 0 666.8 0C622.3 0 577.7 0 533.2 0C488.7 0 444.3 0 400 0C355.7 0 311.3 0 266.8 0C222.3 0 177.7 0 133.2 0C88.7 0 44.3 0 22.2 0L0 0Z" fill="#988059"></path><path d="M0 201L22.2 207.8C44.3 214.7 88.7 228.3 133.2 236.2C177.7 244 222.3 246 266.8 235.8C311.3 225.7 355.7 203.3 400 203C444.3 202.7 488.7 224.3 533.2 237.3C577.7 250.3 622.3 254.7 666.8 255.8C711.3 257 755.7 255 800 248.3C844.3 241.7 888.7 230.3 933.2 224.8C977.7 219.3 1022.3 219.7 1066.8 225.7C1111.3 231.7 1155.7 243.3 1200 242C1244.3 240.7 1288.7 226.3 1333.2 215.2C1377.7 204 1422.3 196 1466.8 189.5C1511.3 183 1555.7 178 1600 191.8C1644.3 205.7 1688.7 238.3 1733.2 246.8C1777.7 255.3 1822.3 239.7 1866.8 234.5C1911.3 229.3 1955.7 234.7 1977.8 237.3L2000 240L2000 0L1977.8 0C1955.7 0 1911.3 0 1866.8 0C1822.3 0 1777.7 0 1733.2 0C1688.7 0 1644.3 0 1600 0C1555.7 0 1511.3 0 1466.8 0C1422.3 0 1377.7 0 1333.2 0C1288.7 0 1244.3 0 1200 0C1155.7 0 1111.3 0 1066.8 0C1022.3 0 977.7 0 933.2 0C888.7 0 844.3 0 800 0C755.7 0 711.3 0 666.8 0C622.3 0 577.7 0 533.2 0C488.7 0 444.3 0 400 0C355.7 0 311.3 0 266.8 0C222.3 0 177.7 0 133.2 0C88.7 0 44.3 0 22.2 0L0 0Z" fill="#865646"></path><path d="M0 200L22.2 195.8C44.3 191.7 88.7 183.3 133.2 184.5C177.7 185.7 222.3 196.3 266.8 188.8C311.3 181.3 355.7 155.7 400 144.7C444.3 133.7 488.7 137.3 533.2 142C577.7 146.7 622.3 152.3 666.8 154.2C711.3 156 755.7 154 800 153.5C844.3 153 888.7 154 933.2 151.5C977.7 149 1022.3 143 1066.8 146.2C1111.3 149.3 1155.7 161.7 1200 168.8C1244.3 176 1288.7 178 1333.2 180.5C1377.7 183 1422.3 186 1466.8 181.5C1511.3 177 1555.7 165 1600 163.2C1644.3 161.3 1688.7 169.7 1733.2 175.8C1777.7 182 1822.3 186 1866.8 179.3C1911.3 172.7 1955.7 155.3 1977.8 146.7L2000 138L2000 0L1977.8 0C1955.7 0 1911.3 0 1866.8 0C1822.3 0 1777.7 0 1733.2 0C1688.7 0 1644.3 0 1600 0C1555.7 0 1511.3 0 1466.8 0C1422.3 0 1377.7 0 1333.2 0C1288.7 0 1244.3 0 1200 0C1155.7 0 1111.3 0 1066.8 0C1022.3 0 977.7 0 933.2 0C888.7 0 844.3 0 800 0C755.7 0 711.3 0 666.8 0C622.3 0 577.7 0 533.2 0C488.7 0 444.3 0 400 0C355.7 0 311.3 0 266.8 0C222.3 0 177.7 0 133.2 0C88.7 0 44.3 0 22.2 0L0 0Z" fill="#67323e"></path><path d="M0 130L22.2 132.3C44.3 134.7 88.7 139.3 133.2 138.3C177.7 137.3 222.3 130.7 266.8 120.5C311.3 110.3 355.7 96.7 400 90.5C444.3 84.3 488.7 85.7 533.2 85.7C577.7 85.7 622.3 84.3 666.8 85.8C711.3 87.3 755.7 91.7 800 93.8C844.3 96 888.7 96 933.2 101.3C977.7 106.7 1022.3 117.3 1066.8 120.5C1111.3 123.7 1155.7 119.3 1200 124.2C1244.3 129 1288.7 143 1333.2 137.2C1377.7 131.3 1422.3 105.7 1466.8 98.7C1511.3 91.7 1555.7 103.3 1600 109.2C1644.3 115 1688.7 115 1733.2 110.2C1777.7 105.3 1822.3 95.7 1866.8 92.7C1911.3 89.7 1955.7 93.3 1977.8 95.2L2000 97L2000 0L1977.8 0C1955.7 0 1911.3 0 1866.8 0C1822.3 0 1777.7 0 1733.2 0C1688.7 0 1644.3 0 1600 0C1555.7 0 1511.3 0 1466.8 0C1422.3 0 1377.7 0 1333.2 0C1288.7 0 1244.3 0 1200 0C1155.7 0 1111.3 0 1066.8 0C1022.3 0 977.7 0 933.2 0C888.7 0 844.3 0 800 0C755.7 0 711.3 0 666.8 0C622.3 0 577.7 0 533.2 0C488.7 0 444.3 0 400 0C355.7 0 311.3 0 266.8 0C222.3 0 177.7 0 133.2 0C88.7 0 44.3 0 22.2 0L0 0Z" fill="#3c1837"></path><path d="M0 60L22.2 55.5C44.3 51 88.7 42 133.2 44C177.7 46 222.3 59 266.8 64.5C311.3 70 355.7 68 400 64C444.3 60 488.7 54 533.2 50.2C577.7 46.3 622.3 44.7 666.8 47.3C711.3 50 755.7 57 800 66C844.3 75 888.7 86 933.2 90C977.7 94 1022.3 91 1066.8 86C1111.3 81 1155.7 74 1200 66.2C1244.3 58.3 1288.7 49.7 1333.2 46.7C1377.7 43.7 1422.3 46.3 1466.8 51C1511.3 55.7 1555.7 62.3 1600 68.3C1644.3 74.3 1688.7 79.7 1733.2 75.3C1777.7 71 1822.3 57 1866.8 59C1911.3 61 1955.7 79 1977.8 88L2000 97L2000 0L1977.8 0C1955.7 0 1911.3 0 1866.8 0C1822.3 0 1777.7 0 1733.2 0C1688.7 0 1644.3 0 1600 0C1555.7 0 1511.3 0 1466.8 0C1422.3 0 1377.7 0 1333.2 0C1288.7 0 1244.3 0 1200 0C1155.7 0 1111.3 0 1066.8 0C1022.3 0 977.7 0 933.2 0C888.7 0 844.3 0 800 0C755.7 0 711.3 0 666.8 0C622.3 0 577.7 0 533.2 0C488.7 0 444.3 0 400 0C355.7 0 311.3 0 266.8 0C222.3 0 177.7 0 133.2 0C88.7 0 44.3 0 22.2 0L0 0Z" fill="#030029"></path></svg>