<svg id="visual" viewBox="0 0 2000 400" width="2000" height="400" xmlns="http://www.w3.org/2000/svg" xmlns:xlink="http://www.w3.org/1999/xlink" version="1.1"><path d="M0 184L22.2 169.7C44.3 155.3 88.7 126.7 133.2 126.7C177.7 126.7 222.3 155.3 266.8 156.2C311.3 157 355.7 130 400 130.7C444.3 131.3 488.7 159.7 533.2 175.3C577.7 191 622.3 194 666.8 189C711.3 184 755.7 171 800 157.8C844.3 144.7 888.7 131.3 933.2 136.5C977.7 141.7 1022.3 165.3 1066.8 167.2C1111.3 169 1155.7 149 1200 133.2C1244.3 117.3 1288.7 105.7 1333.2 110.5C1377.7 115.3 1422.3 136.7 1466.8 135.3C1511.3 134 1555.7 110 1600 108.3C1644.3 106.7 1688.7 127.3 1733.2 134C1777.7 140.7 1822.3 133.3 1866.8 141.7C1911.3 150 1955.7 174 1977.8 186L2000 198L2000 401L1977.8 401C1955.7 401 1911.3 401 1866.8 401C1822.3 401 1777.7 401 1733.2 401C1688.7 401 1644.3 401 1600 401C1555.7 401 1511.3 401 1466.8 401C1422.3 401 1377.7 401 1333.2 401C1288.7 401 1244.3 401 1200 401C1155.7 401 1111.3 401 1066.8 401C1022.3 401 977.7 401 933.2 401C888.7 401 844.3 401 800 401C755.7 401 711.3 401 666.8 401C622.3 401 577.7 401 533.2 401C488.7 401 444.3 401 400 401C355.7 401 311.3 401 266.8 401C222.3 401 177.7 401 133.2 401C88.7 401 44.3 401 22.2 401L0 401Z" fill="#09200d"></path><path d="M0 141L22.2 156.5C44.3 172 88.7 203 133.2 205.8C177.7 208.7 222.3 183.3 266.8 170.7C311.3 158 355.7 158 400 156.7C444.3 155.3 488.7 152.7 533.2 148.7C577.7 144.7 622.3 139.3 666.8 148.7C711.3 158 755.7 182 800 193.7C844.3 205.3 888.7 204.7 933.2 208.2C977.7 211.7 1022.3 219.3 1066.8 210.8C1111.3 202.3 1155.7 177.7 1200 176.5C1244.3 175.3 1288.7 197.7 1333.2 211.2C1377.7 224.7 1422.3 229.3 1466.8 217.3C1511.3 205.3 1555.7 176.7 1600 176.3C1644.3 176 1688.7 204 1733.2 216C1777.7 228 1822.3 224 1866.8 209.7C1911.3 195.3 1955.7 170.7 1977.8 158.3L2000 146L2000 401L1977.8 401C1955.7 401 1911.3 401 1866.8 401C1822.3 401 1777.7 401 1733.2 401C1688.7 401 1644.3 401 1600 401C1555.7 401 1511.3 401 1466.8 401C1422.3 401 1377.7 401 1333.2 401C1288.7 401 1244.3 401 1200 401C1155.7 401 1111.3 401 1066.8 401C1022.3 401 977.7 401 933.2 401C888.7 401 844.3 401 800 401C755.7 401 711.3 401 666.8 401C622.3 401 577.7 401 533.2 401C488.7 401 444.3 401 400 401C355.7 401 311.3 401 266.8 401C222.3 401 177.7 401 133.2 401C88.7 401 44.3 401 22.2 401L0 401Z" fill="#1d2f10"></path><path d="M0 213L22.2 213.3C44.3 213.7 88.7 214.3 133.2 210.7C177.7 207 222.3 199 266.8 208.5C311.3 218 355.7 245 400 249.8C444.3 254.7 488.7 237.3 533.2 231.7C577.7 226 622.3 232 666.8 230.7C711.3 229.3 755.7 220.7 800 227C844.3 233.3 888.7 254.7 933.2 250.5C977.7 246.3 1022.3 216.7 1066.8 210.2C1111.3 203.7 1155.7 220.3 1200 222C1244.3 223.7 1288.7 210.3 1333.2 207.2C1377.7 204 1422.3 211 1466.8 209.2C1511.3 207.3 1555.7 196.7 1600 202.3C1644.3 208 1688.7 230 1733.2 237.3C1777.7 244.7 1822.3 237.3 1866.8 226.7C1911.3 216 1955.7 202 1977.8 195L2000 188L2000 401L1977.8 401C1955.7 401 1911.3 401 1866.8 401C1822.3 401 1777.7 401 1733.2 401C1688.7 401 1644.3 401 1600 401C1555.7 401 1511.3 401 1466.8 401C1422.3 401 1377.7 401 1333.2 401C1288.7 401 1244.3 401 1200 401C1155.7 401 1111.3 401 1066.8 401C1022.3 401 977.7 401 933.2 401C888.7 401 844.3 401 800 401C755.7 401 711.3 401 666.8 401C622.3 401 577.7 401 533.2 401C488.7 401 444.3 401 400 401C355.7 401 311.3 401 266.8 401C222.3 401 177.7 401 133.2 401C88.7 401 44.3 401 22.2 401L0 401Z" fill="#363d11"></path><path d="M0 284L22.2 284.7C44.3 285.3 88.7 286.7 133.2 285.8C177.7 285 222.3 282 266.8 283.5C311.3 285 355.7 291 400 287.7C444.3 284.3 488.7 271.7 533.2 269.8C577.7 268 622.3 277 666.8 281C711.3 285 755.7 284 800 278.5C844.3 273 888.7 263 933.2 256.7C977.7 250.3 1022.3 247.7 1066.8 257.3C1111.3 267 1155.7 289 1200 300.3C1244.3 311.7 1288.7 312.3 1333.2 313.8C1377.7 315.3 1422.3 317.7 1466.8 313.5C1511.3 309.3 1555.7 298.7 1600 289.7C1644.3 280.7 1688.7 273.3 1733.2 265.7C1777.7 258 1822.3 250 1866.8 257.7C1911.3 265.3 1955.7 288.7 1977.8 300.3L2000 312L2000 401L1977.8 401C1955.7 401 1911.3 401 1866.8 401C1822.3 401 1777.7 401 1733.2 401C1688.7 401 1644.3 401 1600 401C1555.7 401 1511.3 401 1466.8 401C1422.3 401 1377.7 401 1333.2 401C1288.7 401 1244.3 401 1200 401C1155.7 401 1111.3 401 1066.8 401C1022.3 401 977.7 401 933.2 401C888.7 401 844.3 401 800 401C755.7 401 711.3 401 666.8 401C622.3 401 577.7 401 533.2 401C488.7 401 444.3 401 400 401C355.7 401 311.3 401 266.8 401C222.3 401 177.7 401 133.2 401C88.7 401 44.3 401 22.2 401L0 401Z" fill="#544a14"></path><path d="M0 314L22.2 319C44.3 324 88.7 334 133.2 335.2C177.7 336.3 222.3 328.7 266.8 322.3C311.3 316 355.7 311 400 309.7C444.3 308.3 488.7 310.7 533.2 315.2C577.7 319.7 622.3 326.3 666.8 327.8C711.3 329.3 755.7 325.7 800 330.7C844.3 335.7 888.7 349.3 933.2 347.3C977.7 345.3 1022.3 327.7 1066.8 318.8C1111.3 310 1155.7 310 1200 310C1244.3 310 1288.7 310 1333.2 316.7C1377.7 323.3 1422.3 336.7 1466.8 345.8C1511.3 355 1555.7 360 1600 351.7C1644.3 343.3 1688.7 321.7 1733.2 317C1777.7 312.3 1822.3 324.7 1866.8 328.3C1911.3 332 1955.7 327 1977.8 324.5L2000 322L2000 401L1977.8 401C1955.7 401 1911.3 401 1866.8 401C1822.3 401 1777.7 401 1733.2 401C1688.7 401 1644.3 401 1600 401C1555.7 401 1511.3 401 1466.8 401C1422.3 401 1377.7 401 1333.2 401C1288.7 401 1244.3 401 1200 401C1155.7 401 1111.3 401 1066.8 401C1022.3 401 977.7 401 933.2 401C888.7 401 844.3 401 800 401C755.7 401 711.3 401 666.8 401C622.3 401 577.7 401 533.2 401C488.7 401 444.3 401 400 401C355.7 401 311.3 401 266.8 401C222.3 401 177.7 401 133.2 401C88.7 401 44.3 401 22.2 401L0 401Z" fill="#77541d"></path></svg>