<svg id="visual" viewBox="0 0 600 900" width="600" height="900" xmlns="http://www.w3.org/2000/svg" xmlns:xlink="http://www.w3.org/1999/xlink" version="1.1"><path d="M0 399L16.7 416.5C33.3 434 66.7 469 100 485C133.3 501 166.7 498 200 477.8C233.3 457.7 266.7 420.3 300 418.5C333.3 416.7 366.7 450.3 400 449.5C433.3 448.7 466.7 413.3 500 403.3C533.3 393.3 566.7 408.7 583.3 416.3L600 424L600 901L583.3 901C566.7 901 533.3 901 500 901C466.7 901 433.3 901 400 901C366.7 901 333.3 901 300 901C266.7 901 233.3 901 200 901C166.7 901 133.3 901 100 901C66.7 901 33.3 901 16.7 901L0 901Z" fill="#09200d"></path><path d="M0 483L16.7 495.7C33.3 508.3 66.7 533.7 100 546.2C133.3 558.7 166.7 558.3 200 549.5C233.3 540.7 266.7 523.3 300 526.8C333.3 530.3 366.7 554.7 400 555.5C433.3 556.3 466.7 533.7 500 515.8C533.3 498 566.7 485 583.3 478.5L600 472L600 901L583.3 901C566.7 901 533.3 901 500 901C466.7 901 433.3 901 400 901C366.7 901 333.3 901 300 901C266.7 901 233.3 901 200 901C166.7 901 133.3 901 100 901C66.7 901 33.3 901 16.7 901L0 901Z" fill="#1d2f10"></path><path d="M0 669L16.7 658.5C33.3 648 66.7 627 100 614.2C133.3 601.3 166.7 596.7 200 595C233.3 593.3 266.7 594.7 300 589.5C333.3 584.3 366.7 572.7 400 570C433.3 567.3 466.7 573.7 500 586C533.3 598.3 566.7 616.7 583.3 625.8L600 635L600 901L583.3 901C566.7 901 533.3 901 500 901C466.7 901 433.3 901 400 901C366.7 901 333.3 901 300 901C266.7 901 233.3 901 200 901C166.7 901 133.3 901 100 901C66.7 901 33.3 901 16.7 901L0 901Z" fill="#363d11"></path><path d="M0 737L16.7 731.8C33.3 726.7 66.7 716.3 100 704.2C133.3 692 166.7 678 200 679.2C233.3 680.3 266.7 696.7 300 705C333.3 713.3 366.7 713.7 400 705C433.3 696.3 466.7 678.7 500 670C533.3 661.3 566.7 661.7 583.3 661.8L600 662L600 901L583.3 901C566.7 901 533.3 901 500 901C466.7 901 433.3 901 400 901C366.7 901 333.3 901 300 901C266.7 901 233.3 901 200 901C166.7 901 133.3 901 100 901C66.7 901 33.3 901 16.7 901L0 901Z" fill="#544a14"></path><path d="M0 823L16.7 822C33.3 821 66.7 819 100 818.7C133.3 818.3 166.7 819.7 200 820.5C233.3 821.3 266.7 821.7 300 818.5C333.3 815.3 366.7 808.7 400 806.8C433.3 805 466.7 808 500 799.8C533.3 791.7 566.7 772.3 583.3 762.7L600 753L600 901L583.3 901C566.7 901 533.3 901 500 901C466.7 901 433.3 901 400 901C366.7 901 333.3 901 300 901C266.7 901 233.3 901 200 901C166.7 901 133.3 901 100 901C66.7 901 33.3 901 16.7 901L0 901Z" fill="#77541d"></path></svg>