<svg id="visual" viewBox="0 0 600 900" width="600" height="900" xmlns="http://www.w3.org/2000/svg" xmlns:xlink="http://www.w3.org/1999/xlink" version="1.1"><path d="M0 515L14.3 524.7C28.7 534.3 57.3 553.7 85.8 572.5C114.3 591.3 142.7 609.7 171.2 603.8C199.7 598 228.3 568 257 551.5C285.7 535 314.3 532 343 542.5C371.7 553 400.3 577 428.8 577.3C457.3 577.7 485.7 554.3 514.2 552C542.7 549.7 571.3 568.3 585.7 577.7L600 587L600 901L585.7 901C571.3 901 542.7 901 514.2 901C485.7 901 457.3 901 428.8 901C400.3 901 371.7 901 343 901C314.3 901 285.7 901 257 901C228.3 901 199.7 901 171.2 901C142.7 901 114.3 901 85.8 901C57.3 901 28.7 901 14.3 901L0 901Z" fill="#09200d"></path><path d="M0 618L14.3 625.3C28.7 632.7 57.3 647.3 85.8 649.7C114.3 652 142.7 642 171.2 632C199.7 622 228.3 612 257 618.2C285.7 624.3 314.3 646.7 343 650.5C371.7 654.3 400.3 639.7 428.8 632.2C457.3 624.7 485.7 624.3 514.2 622.2C542.7 620 571.3 616 585.7 614L600 612L600 901L585.7 901C571.3 901 542.7 901 514.2 901C485.7 901 457.3 901 428.8 901C400.3 901 371.7 901 343 901C314.3 901 285.7 901 257 901C228.3 901 199.7 901 171.2 901C142.7 901 114.3 901 85.8 901C57.3 901 28.7 901 14.3 901L0 901Z" fill="#1d2f10"></path><path d="M0 666L14.3 666.8C28.7 667.7 57.3 669.3 85.8 674.5C114.3 679.7 142.7 688.3 171.2 693.3C199.7 698.3 228.3 699.7 257 701.8C285.7 704 314.3 707 343 708C371.7 709 400.3 708 428.8 705.7C457.3 703.3 485.7 699.7 514.2 692.3C542.7 685 571.3 674 585.7 668.5L600 663L600 901L585.7 901C571.3 901 542.7 901 514.2 901C485.7 901 457.3 901 428.8 901C400.3 901 371.7 901 343 901C314.3 901 285.7 901 257 901C228.3 901 199.7 901 171.2 901C142.7 901 114.3 901 85.8 901C57.3 901 28.7 901 14.3 901L0 901Z" fill="#363d11"></path><path d="M0 719L14.3 727.2C28.7 735.3 57.3 751.7 85.8 759C114.3 766.3 142.7 764.7 171.2 757.5C199.7 750.3 228.3 737.7 257 732.5C285.7 727.3 314.3 729.7 343 741.3C371.7 753 400.3 774 428.8 785.3C457.3 796.7 485.7 798.3 514.2 793.3C542.7 788.3 571.3 776.7 585.7 770.8L600 765L600 901L585.7 901C571.3 901 542.7 901 514.2 901C485.7 901 457.3 901 428.8 901C400.3 901 371.7 901 343 901C314.3 901 285.7 901 257 901C228.3 901 199.7 901 171.2 901C142.7 901 114.3 901 85.8 901C57.3 901 28.7 901 14.3 901L0 901Z" fill="#544a14"></path><path d="M0 805L14.3 812.8C28.7 820.7 57.3 836.3 85.8 842C114.3 847.7 142.7 843.3 171.2 842.8C199.7 842.3 228.3 845.7 257 844.2C285.7 842.7 314.3 836.3 343 829.7C371.7 823 400.3 816 428.8 819.3C457.3 822.7 485.7 836.3 514.2 842.7C542.7 849 571.3 848 585.7 847.5L600 847L600 901L585.7 901C571.3 901 542.7 901 514.2 901C485.7 901 457.3 901 428.8 901C400.3 901 371.7 901 343 901C314.3 901 285.7 901 257 901C228.3 901 199.7 901 171.2 901C142.7 901 114.3 901 85.8 901C57.3 901 28.7 901 14.3 901L0 901Z" fill="#77541d"></path></svg>