<svg id="visual" viewBox="0 0 900 900" width="900" height="900" xmlns="http://www.w3.org/2000/svg" xmlns:xlink="http://www.w3.org/1999/xlink" version="1.1"><rect x="0" y="0" width="900" height="900" fill="#ffffff"></rect><path d="M0 409L25 406.8C50 404.7 100 400.3 150 383.3C200 366.3 250 336.7 300 329.3C350 322 400 337 450 360.3C500 383.7 550 415.3 600 416C650 416.7 700 386.3 750 371.2C800 356 850 356 875 356L900 356L900 901L875 901C850 901 800 901 750 901C700 901 650 901 600 901C550 901 500 901 450 901C400 901 350 901 300 901C250 901 200 901 150 901C100 901 50 901 25 901L0 901Z" fill="#4b5b4e"></path><path d="M0 513L25 504.7C50 496.3 100 479.7 150 473.7C200 467.7 250 472.3 300 472.5C350 472.7 400 468.3 450 476.5C500 484.7 550 505.3 600 495.5C650 485.7 700 445.3 750 425.7C800 406 850 407 875 407.5L900 408L900 901L875 901C850 901 800 901 750 901C700 901 650 901 600 901C550 901 500 901 450 901C400 901 350 901 300 901C250 901 200 901 150 901C100 901 50 901 25 901L0 901Z" fill="#274945"></path><path d="M0 542L25 543C50 544 100 546 150 557C200 568 250 588 300 593.2C350 598.3 400 588.7 450 575.3C500 562 550 545 600 547.7C650 550.3 700 572.7 750 590.7C800 608.7 850 622.3 875 629.2L900 636L900 901L875 901C850 901 800 901 750 901C700 901 650 901 600 901C550 901 500 901 450 901C400 901 350 901 300 901C250 901 200 901 150 901C100 901 50 901 25 901L0 901Z" fill="#003540"></path><path d="M0 714L25 704.8C50 695.7 100 677.3 150 664C200 650.7 250 642.3 300 642.2C350 642 400 650 450 661.7C500 673.3 550 688.7 600 696.7C650 704.7 700 705.3 750 707.2C800 709 850 712 875 713.5L900 715L900 901L875 901C850 901 800 901 750 901C700 901 650 901 600 901C550 901 500 901 450 901C400 901 350 901 300 901C250 901 200 901 150 901C100 901 50 901 25 901L0 901Z" fill="#002039"></path><path d="M0 801L25 792.3C50 783.7 100 766.3 150 765C200 763.7 250 778.3 300 780C350 781.7 400 770.3 450 767C500 763.7 550 768.3 600 765.2C650 762 700 751 750 746.8C800 742.7 850 745.3 875 746.7L900 748L900 901L875 901C850 901 800 901 750 901C700 901 650 901 600 901C550 901 500 901 450 901C400 901 350 901 300 901C250 901 200 901 150 901C100 901 50 901 25 901L0 901Z" fill="#030029"></path></svg>