<svg id="visual" viewBox="0 0 900 900" width="900" height="900" xmlns="http://www.w3.org/2000/svg" xmlns:xlink="http://www.w3.org/1999/xlink" version="1.1"><rect x="0" y="0" width="900" height="900" fill="#ffffff"></rect><path d="M0 553L25 560C50 567 100 581 150 564.8C200 548.7 250 502.3 300 489C350 475.7 400 495.3 450 490.5C500 485.7 550 456.3 600 464.3C650 472.3 700 517.7 750 536.3C800 555 850 547 875 543L900 539L900 0L875 0C850 0 800 0 750 0C700 0 650 0 600 0C550 0 500 0 450 0C400 0 350 0 300 0C250 0 200 0 150 0C100 0 50 0 25 0L0 0Z" fill="#77541d"></path><path d="M0 392L25 407.8C50 423.7 100 455.3 150 449.7C200 444 250 401 300 390.3C350 379.7 400 401.3 450 415.5C500 429.7 550 436.3 600 441.2C650 446 700 449 750 434C800 419 850 386 875 369.5L900 353L900 0L875 0C850 0 800 0 750 0C700 0 650 0 600 0C550 0 500 0 450 0C400 0 350 0 300 0C250 0 200 0 150 0C100 0 50 0 25 0L0 0Z" fill="#703223"></path><path d="M0 280L25 291.5C50 303 100 326 150 330.3C200 334.7 250 320.3 300 319C350 317.7 400 329.3 450 322.7C500 316 550 291 600 277.7C650 264.3 700 262.7 750 270.8C800 279 850 297 875 306L900 315L900 0L875 0C850 0 800 0 750 0C700 0 650 0 600 0C550 0 500 0 450 0C400 0 350 0 300 0C250 0 200 0 150 0C100 0 50 0 25 0L0 0Z" fill="#59182d"></path><path d="M0 229L25 229.8C50 230.7 100 232.3 150 227C200 221.7 250 209.3 300 206.3C350 203.3 400 209.7 450 220C500 230.3 550 244.7 600 240.7C650 236.7 700 214.3 750 217.3C800 220.3 850 248.7 875 262.8L900 277L900 0L875 0C850 0 800 0 750 0C700 0 650 0 600 0C550 0 500 0 450 0C400 0 350 0 300 0C250 0 200 0 150 0C100 0 50 0 25 0L0 0Z" fill="#340d31"></path><path d="M0 164L25 157.5C50 151 100 138 150 132.8C200 127.7 250 130.3 300 135.3C350 140.3 400 147.7 450 150.2C500 152.7 550 150.3 600 140.3C650 130.3 700 112.7 750 110.7C800 108.7 850 122.3 875 129.2L900 136L900 0L875 0C850 0 800 0 750 0C700 0 650 0 600 0C550 0 500 0 450 0C400 0 350 0 300 0C250 0 200 0 150 0C100 0 50 0 25 0L0 0Z" fill="#030029"></path></svg>