<svg id="visual" viewBox="0 0 900 450" width="900" height="450" xmlns="http://www.w3.org/2000/svg" xmlns:xlink="http://www.w3.org/1999/xlink" version="1.1"><rect x="0" y="0" width="900" height="450" fill="#030029"></rect><path d="M0 137L10.7 150.2C21.3 163.3 42.7 189.7 64.2 198.5C85.7 207.3 107.3 198.7 128.8 199.2C150.3 199.7 171.7 209.3 193 216.5C214.3 223.7 235.7 228.3 257 219.8C278.3 211.3 299.7 189.7 321.2 190.8C342.7 192 364.3 216 385.8 213.5C407.3 211 428.7 182 450 174.2C471.3 166.3 492.7 179.7 514.2 183.8C535.7 188 557.3 183 578.8 189.8C600.3 196.7 621.7 215.3 643 214.5C664.3 213.7 685.7 193.3 707 191C728.3 188.7 749.7 204.3 771.2 200.2C792.7 196 814.3 172 835.8 168.3C857.3 164.7 878.7 181.3 889.3 189.7L900 198L900 451L889.3 451C878.7 451 857.3 451 835.8 451C814.3 451 792.7 451 771.2 451C749.7 451 728.3 451 707 451C685.7 451 664.3 451 643 451C621.7 451 600.3 451 578.8 451C557.3 451 535.7 451 514.2 451C492.7 451 471.3 451 450 451C428.7 451 407.3 451 385.8 451C364.3 451 342.7 451 321.2 451C299.7 451 278.3 451 257 451C235.7 451 214.3 451 193 451C171.7 451 150.3 451 128.8 451C107.3 451 85.7 451 64.2 451C42.7 451 21.3 451 10.7 451L0 451Z" fill="#09200d"></path><path d="M0 218L10.7 222.7C21.3 227.3 42.7 236.7 64.2 243C85.7 249.3 107.3 252.7 128.8 259.5C150.3 266.3 171.7 276.7 193 276.2C214.3 275.7 235.7 264.3 257 255.2C278.3 246 299.7 239 321.2 232C342.7 225 364.3 218 385.8 223.3C407.3 228.7 428.7 246.3 450 246C471.3 245.7 492.7 227.3 514.2 220.5C535.7 213.7 557.3 218.3 578.8 224.2C600.3 230 621.7 237 643 239.8C664.3 242.7 685.7 241.3 707 238.7C728.3 236 749.7 232 771.2 230C792.7 228 814.3 228 835.8 224.8C857.3 221.7 878.7 215.3 889.3 212.2L900 209L900 451L889.3 451C878.7 451 857.3 451 835.8 451C814.3 451 792.7 451 771.2 451C749.7 451 728.3 451 707 451C685.7 451 664.3 451 643 451C621.7 451 600.3 451 578.8 451C557.3 451 535.7 451 514.2 451C492.7 451 471.3 451 450 451C428.7 451 407.3 451 385.8 451C364.3 451 342.7 451 321.2 451C299.7 451 278.3 451 257 451C235.7 451 214.3 451 193 451C171.7 451 150.3 451 128.8 451C107.3 451 85.7 451 64.2 451C42.7 451 21.3 451 10.7 451L0 451Z" fill="#1d2f10"></path><path d="M0 313L10.7 308.3C21.3 303.7 42.7 294.3 64.2 293.8C85.7 293.3 107.3 301.7 128.8 300.3C150.3 299 171.7 288 193 288.2C214.3 288.3 235.7 299.7 257 299.2C278.3 298.7 299.7 286.3 321.2 282.7C342.7 279 364.3 284 385.8 286.5C407.3 289 428.7 289 450 295.7C471.3 302.3 492.7 315.7 514.2 309.7C535.7 303.7 557.3 278.3 578.8 265.2C600.3 252 621.7 251 643 260.3C664.3 269.7 685.7 289.3 707 293.3C728.3 297.3 749.7 285.7 771.2 275.7C792.7 265.7 814.3 257.3 835.8 257.2C857.3 257 878.7 265 889.3 269L900 273L900 451L889.3 451C878.7 451 857.3 451 835.8 451C814.3 451 792.7 451 771.2 451C749.7 451 728.3 451 707 451C685.7 451 664.3 451 643 451C621.7 451 600.3 451 578.8 451C557.3 451 535.7 451 514.2 451C492.7 451 471.3 451 450 451C428.7 451 407.3 451 385.8 451C364.3 451 342.7 451 321.2 451C299.7 451 278.3 451 257 451C235.7 451 214.3 451 193 451C171.7 451 150.3 451 128.8 451C107.3 451 85.7 451 64.2 451C42.7 451 21.3 451 10.7 451L0 451Z" fill="#363d11"></path><path d="M0 364L10.7 365.2C21.3 366.3 42.7 368.7 64.2 369.2C85.7 369.7 107.3 368.3 128.8 360.2C150.3 352 171.7 337 193 327.7C214.3 318.3 235.7 314.7 257 315.3C278.3 316 299.7 321 321.2 328.3C342.7 335.7 364.3 345.3 385.8 347.3C407.3 349.3 428.7 343.7 450 341.5C471.3 339.3 492.7 340.7 514.2 347C535.7 353.3 557.3 364.7 578.8 368.7C600.3 372.7 621.7 369.3 643 367C664.3 364.7 685.7 363.3 707 364.3C728.3 365.3 749.7 368.7 771.2 369.8C792.7 371 814.3 370 835.8 364.8C857.3 359.7 878.7 350.3 889.3 345.7L900 341L900 451L889.3 451C878.7 451 857.3 451 835.8 451C814.3 451 792.7 451 771.2 451C749.7 451 728.3 451 707 451C685.7 451 664.3 451 643 451C621.7 451 600.3 451 578.8 451C557.3 451 535.7 451 514.2 451C492.7 451 471.3 451 450 451C428.7 451 407.3 451 385.8 451C364.3 451 342.7 451 321.2 451C299.7 451 278.3 451 257 451C235.7 451 214.3 451 193 451C171.7 451 150.3 451 128.8 451C107.3 451 85.7 451 64.2 451C42.7 451 21.3 451 10.7 451L0 451Z" fill="#544a14"></path><path d="M0 396L10.7 395.7C21.3 395.3 42.7 394.7 64.2 396.3C85.7 398 107.3 402 128.8 403.2C150.3 404.3 171.7 402.7 193 399.3C214.3 396 235.7 391 257 391.7C278.3 392.3 299.7 398.7 321.2 404.3C342.7 410 364.3 415 385.8 408.2C407.3 401.3 428.7 382.7 450 381.7C471.3 380.7 492.7 397.3 514.2 398.3C535.7 399.3 557.3 384.7 578.8 375.7C600.3 366.7 621.7 363.3 643 370.2C664.3 377 685.7 394 707 397C728.3 400 749.7 389 771.2 379.3C792.7 369.7 814.3 361.3 835.8 359C857.3 356.7 878.7 360.3 889.3 362.2L900 364L900 451L889.3 451C878.7 451 857.3 451 835.8 451C814.3 451 792.7 451 771.2 451C749.7 451 728.3 451 707 451C685.7 451 664.3 451 643 451C621.7 451 600.3 451 578.8 451C557.3 451 535.7 451 514.2 451C492.7 451 471.3 451 450 451C428.7 451 407.3 451 385.8 451C364.3 451 342.7 451 321.2 451C299.7 451 278.3 451 257 451C235.7 451 214.3 451 193 451C171.7 451 150.3 451 128.8 451C107.3 451 85.7 451 64.2 451C42.7 451 21.3 451 10.7 451L0 451Z" fill="#77541d"></path></svg>