<svg id="visual" viewBox="0 0 900 900" width="900" height="900" xmlns="http://www.w3.org/2000/svg" xmlns:xlink="http://www.w3.org/1999/xlink" version="1.1"><path d="M0 399L25 416.5C50 434 100 469 150 485C200 501 250 498 300 477.8C350 457.7 400 420.3 450 418.5C500 416.7 550 450.3 600 449.5C650 448.7 700 413.3 750 403.3C800 393.3 850 408.7 875 416.3L900 424L900 901L875 901C850 901 800 901 750 901C700 901 650 901 600 901C550 901 500 901 450 901C400 901 350 901 300 901C250 901 200 901 150 901C100 901 50 901 25 901L0 901Z" fill="#09200d"></path><path d="M0 483L25 495.7C50 508.3 100 533.7 150 546.2C200 558.7 250 558.3 300 549.5C350 540.7 400 523.3 450 526.8C500 530.3 550 554.7 600 555.5C650 556.3 700 533.7 750 515.8C800 498 850 485 875 478.5L900 472L900 901L875 901C850 901 800 901 750 901C700 901 650 901 600 901C550 901 500 901 450 901C400 901 350 901 300 901C250 901 200 901 150 901C100 901 50 901 25 901L0 901Z" fill="#1d2f10"></path><path d="M0 669L25 658.5C50 648 100 627 150 614.2C200 601.3 250 596.7 300 595C350 593.3 400 594.7 450 589.5C500 584.3 550 572.7 600 570C650 567.3 700 573.7 750 586C800 598.3 850 616.7 875 625.8L900 635L900 901L875 901C850 901 800 901 750 901C700 901 650 901 600 901C550 901 500 901 450 901C400 901 350 901 300 901C250 901 200 901 150 901C100 901 50 901 25 901L0 901Z" fill="#363d11"></path><path d="M0 737L25 731.8C50 726.7 100 716.3 150 704.2C200 692 250 678 300 679.2C350 680.3 400 696.7 450 705C500 713.3 550 713.7 600 705C650 696.3 700 678.7 750 670C800 661.3 850 661.7 875 661.8L900 662L900 901L875 901C850 901 800 901 750 901C700 901 650 901 600 901C550 901 500 901 450 901C400 901 350 901 300 901C250 901 200 901 150 901C100 901 50 901 25 901L0 901Z" fill="#544a14"></path><path d="M0 823L25 822C50 821 100 819 150 818.7C200 818.3 250 819.7 300 820.5C350 821.3 400 821.7 450 818.5C500 815.3 550 808.7 600 806.8C650 805 700 808 750 799.8C800 791.7 850 772.3 875 762.7L900 753L900 901L875 901C850 901 800 901 750 901C700 901 650 901 600 901C550 901 500 901 450 901C400 901 350 901 300 901C250 901 200 901 150 901C100 901 50 901 25 901L0 901Z" fill="#77541d"></path></svg>