<svg id="visual" viewBox="0 0 900 900" width="900" height="900" xmlns="http://www.w3.org/2000/svg" xmlns:xlink="http://www.w3.org/1999/xlink" version="1.1"><path d="M0 429L25 430.3C50 431.7 100 434.3 150 434.5C200 434.7 250 432.3 300 439.5C350 446.7 400 463.3 450 463.2C500 463 550 446 600 439.2C650 432.3 700 435.7 750 443.2C800 450.7 850 462.3 875 468.2L900 474L900 0L875 0C850 0 800 0 750 0C700 0 650 0 600 0C550 0 500 0 450 0C400 0 350 0 300 0C250 0 200 0 150 0C100 0 50 0 25 0L0 0Z" fill="#030029"></path><path d="M0 305L25 319.7C50 334.3 100 363.7 150 363.5C200 363.3 250 333.7 300 335.7C350 337.7 400 371.3 450 375.3C500 379.3 550 353.7 600 347.8C650 342 700 356 750 352C800 348 850 326 875 315L900 304L900 0L875 0C850 0 800 0 750 0C700 0 650 0 600 0C550 0 500 0 450 0C400 0 350 0 300 0C250 0 200 0 150 0C100 0 50 0 25 0L0 0Z" fill="#420f31"></path><path d="M0 205L25 208C50 211 100 217 150 216.8C200 216.7 250 210.3 300 219C350 227.7 400 251.3 450 254.8C500 258.3 550 241.7 600 230.8C650 220 700 215 750 217.3C800 219.7 850 229.3 875 234.2L900 239L900 0L875 0C850 0 800 0 750 0C700 0 650 0 600 0C550 0 500 0 450 0C400 0 350 0 300 0C250 0 200 0 150 0C100 0 50 0 25 0L0 0Z" fill="#6a2827"></path><path d="M0 109L25 110.2C50 111.3 100 113.7 150 109.2C200 104.7 250 93.3 300 96.5C350 99.7 400 117.3 450 124.2C500 131 550 127 600 125.8C650 124.7 700 126.3 750 132.2C800 138 850 148 875 153L900 158L900 0L875 0C850 0 800 0 750 0C700 0 650 0 600 0C550 0 500 0 450 0C400 0 350 0 300 0C250 0 200 0 150 0C100 0 50 0 25 0L0 0Z" fill="#77541d"></path></svg>