<svg id="visual" viewBox="0 0 900 900" width="900" height="900" xmlns="http://www.w3.org/2000/svg" xmlns:xlink="http://www.w3.org/1999/xlink" version="1.1"><rect x="0" y="0" width="900" height="900" fill="#ffffff"></rect><path d="M0 391L25 383.8C50 376.7 100 362.3 150 347.8C200 333.3 250 318.7 300 317.3C350 316 400 328 450 330.5C500 333 550 326 600 324.3C650 322.7 700 326.3 750 338.3C800 350.3 850 370.7 875 380.8L900 391L900 901L875 901C850 901 800 901 750 901C700 901 650 901 600 901C550 901 500 901 450 901C400 901 350 901 300 901C250 901 200 901 150 901C100 901 50 901 25 901L0 901Z" fill="#4b5b4e"></path><path d="M0 425L25 436.2C50 447.3 100 469.7 150 470.7C200 471.7 250 451.3 300 447.5C350 443.7 400 456.3 450 464.8C500 473.3 550 477.7 600 470.3C650 463 700 444 750 441.3C800 438.7 850 452.3 875 459.2L900 466L900 901L875 901C850 901 800 901 750 901C700 901 650 901 600 901C550 901 500 901 450 901C400 901 350 901 300 901C250 901 200 901 150 901C100 901 50 901 25 901L0 901Z" fill="#274945"></path><path d="M0 620L25 604.5C50 589 100 558 150 549.3C200 540.7 250 554.3 300 569.7C350 585 400 602 450 598.8C500 595.7 550 572.3 600 563.8C650 555.3 700 561.7 750 571.3C800 581 850 594 875 600.5L900 607L900 901L875 901C850 901 800 901 750 901C700 901 650 901 600 901C550 901 500 901 450 901C400 901 350 901 300 901C250 901 200 901 150 901C100 901 50 901 25 901L0 901Z" fill="#003540"></path><path d="M0 640L25 648.7C50 657.3 100 674.7 150 679.7C200 684.7 250 677.3 300 669.2C350 661 400 652 450 645.8C500 639.7 550 636.3 600 645.3C650 654.3 700 675.7 750 678.7C800 681.7 850 666.3 875 658.7L900 651L900 901L875 901C850 901 800 901 750 901C700 901 650 901 600 901C550 901 500 901 450 901C400 901 350 901 300 901C250 901 200 901 150 901C100 901 50 901 25 901L0 901Z" fill="#002039"></path><path d="M0 800L25 789C50 778 100 756 150 755.5C200 755 250 776 300 774.3C350 772.7 400 748.3 450 741.8C500 735.3 550 746.7 600 754C650 761.3 700 764.7 750 765.2C800 765.7 850 763.3 875 762.2L900 761L900 901L875 901C850 901 800 901 750 901C700 901 650 901 600 901C550 901 500 901 450 901C400 901 350 901 300 901C250 901 200 901 150 901C100 901 50 901 25 901L0 901Z" fill="#030029"></path></svg>