<svg id="visual" viewBox="0 0 900 900" width="900" height="900" xmlns="http://www.w3.org/2000/svg" xmlns:xlink="http://www.w3.org/1999/xlink" version="1.1"><rect x="0" y="0" width="900" height="900" fill="#ffffff"></rect><path d="M0 423L25 436.3C50 449.7 100 476.3 150 479.2C200 482 250 461 300 451.2C350 441.3 400 442.7 450 444.2C500 445.7 550 447.3 600 472C650 496.7 700 544.3 750 543.8C800 543.3 850 494.7 875 470.3L900 446L900 0L875 0C850 0 800 0 750 0C700 0 650 0 600 0C550 0 500 0 450 0C400 0 350 0 300 0C250 0 200 0 150 0C100 0 50 0 25 0L0 0Z" fill="#77541d"></path><path d="M0 470L25 458.2C50 446.3 100 422.7 150 404.2C200 385.7 250 372.3 300 369.2C350 366 400 373 450 375.8C500 378.7 550 377.3 600 392.8C650 408.3 700 440.7 750 435.3C800 430 850 387 875 365.5L900 344L900 0L875 0C850 0 800 0 750 0C700 0 650 0 600 0C550 0 500 0 450 0C400 0 350 0 300 0C250 0 200 0 150 0C100 0 50 0 25 0L0 0Z" fill="#703223"></path><path d="M0 348L25 346.8C50 345.7 100 343.3 150 332.5C200 321.7 250 302.3 300 293.5C350 284.7 400 286.3 450 291C500 295.7 550 303.3 600 304.5C650 305.7 700 300.3 750 298.7C800 297 850 299 875 300L900 301L900 0L875 0C850 0 800 0 750 0C700 0 650 0 600 0C550 0 500 0 450 0C400 0 350 0 300 0C250 0 200 0 150 0C100 0 50 0 25 0L0 0Z" fill="#59182d"></path><path d="M0 239L25 237C50 235 100 231 150 225.8C200 220.7 250 214.3 300 209C350 203.7 400 199.3 450 208.8C500 218.3 550 241.7 600 239.7C650 237.7 700 210.3 750 207.8C800 205.3 850 227.7 875 238.8L900 250L900 0L875 0C850 0 800 0 750 0C700 0 650 0 600 0C550 0 500 0 450 0C400 0 350 0 300 0C250 0 200 0 150 0C100 0 50 0 25 0L0 0Z" fill="#340d31"></path><path d="M0 124L25 130.8C50 137.7 100 151.3 150 147.8C200 144.3 250 123.7 300 116.5C350 109.3 400 115.7 450 119.2C500 122.7 550 123.3 600 127.7C650 132 700 140 750 139.7C800 139.3 850 130.7 875 126.3L900 122L900 0L875 0C850 0 800 0 750 0C700 0 650 0 600 0C550 0 500 0 450 0C400 0 350 0 300 0C250 0 200 0 150 0C100 0 50 0 25 0L0 0Z" fill="#030029"></path></svg>