<svg id="visual" viewBox="0 0 900 900" width="900" height="900" xmlns="http://www.w3.org/2000/svg" xmlns:xlink="http://www.w3.org/1999/xlink" version="1.1"><rect x="0" y="0" width="900" height="900" fill="#ffffff"></rect><path d="M0 319L25 336.7C50 354.3 100 389.7 150 391.2C200 392.7 250 360.3 300 362.3C350 364.3 400 400.7 450 420.8C500 441 550 445 600 429.5C650 414 700 379 750 373.7C800 368.3 850 392.7 875 404.8L900 417L900 901L875 901C850 901 800 901 750 901C700 901 650 901 600 901C550 901 500 901 450 901C400 901 350 901 300 901C250 901 200 901 150 901C100 901 50 901 25 901L0 901Z" fill="#4b5b4e"></path><path d="M0 437L25 451.3C50 465.7 100 494.3 150 499.5C200 504.7 250 486.3 300 484.7C350 483 400 498 450 501.7C500 505.3 550 497.7 600 487.3C650 477 700 464 750 473.7C800 483.3 850 515.7 875 531.8L900 548L900 901L875 901C850 901 800 901 750 901C700 901 650 901 600 901C550 901 500 901 450 901C400 901 350 901 300 901C250 901 200 901 150 901C100 901 50 901 25 901L0 901Z" fill="#274945"></path><path d="M0 554L25 568.2C50 582.3 100 610.7 150 609.3C200 608 250 577 300 575.3C350 573.7 400 601.3 450 611.2C500 621 550 613 600 612.3C650 611.7 700 618.3 750 610.2C800 602 850 579 875 567.5L900 556L900 901L875 901C850 901 800 901 750 901C700 901 650 901 600 901C550 901 500 901 450 901C400 901 350 901 300 901C250 901 200 901 150 901C100 901 50 901 25 901L0 901Z" fill="#003540"></path><path d="M0 626L25 637.7C50 649.3 100 672.7 150 687.3C200 702 250 708 300 701.8C350 695.7 400 677.3 450 677.7C500 678 550 697 600 690.7C650 684.3 700 652.7 750 644C800 635.3 850 649.7 875 656.8L900 664L900 901L875 901C850 901 800 901 750 901C700 901 650 901 600 901C550 901 500 901 450 901C400 901 350 901 300 901C250 901 200 901 150 901C100 901 50 901 25 901L0 901Z" fill="#002039"></path><path d="M0 794L25 791C50 788 100 782 150 783.3C200 784.7 250 793.3 300 792.5C350 791.7 400 781.3 450 777.3C500 773.3 550 775.7 600 779.2C650 782.7 700 787.3 750 786.7C800 786 850 780 875 777L900 774L900 901L875 901C850 901 800 901 750 901C700 901 650 901 600 901C550 901 500 901 450 901C400 901 350 901 300 901C250 901 200 901 150 901C100 901 50 901 25 901L0 901Z" fill="#030029"></path></svg>