<svg id="visual" viewBox="0 0 600 900" width="600" height="900" xmlns="http://www.w3.org/2000/svg" xmlns:xlink="http://www.w3.org/1999/xlink" version="1.1"><rect x="0" y="0" width="600" height="900" fill="#080808"></rect><path d="M0 428L16.7 413C33.3 398 66.7 368 100 354.2C133.3 340.3 166.7 342.7 200 359.8C233.3 377 266.7 409 300 410.7C333.3 412.3 366.7 383.7 400 384.5C433.3 385.3 466.7 415.7 500 424.2C533.3 432.7 566.7 419.3 583.3 412.7L600 406L600 0L583.3 0C566.7 0 533.3 0 500 0C466.7 0 433.3 0 400 0C366.7 0 333.3 0 300 0C266.7 0 233.3 0 200 0C166.7 0 133.3 0 100 0C66.7 0 33.3 0 16.7 0L0 0Z" fill="#030029"></path><path d="M0 356L16.7 345.2C33.3 334.3 66.7 312.7 100 301.8C133.3 291 166.7 291 200 298.5C233.3 306 266.7 321 300 318C333.3 315 366.7 294 400 293.3C433.3 292.7 466.7 312.3 500 327.7C533.3 343 566.7 354 583.3 359.5L600 365L600 0L583.3 0C566.7 0 533.3 0 500 0C466.7 0 433.3 0 400 0C366.7 0 333.3 0 300 0C266.7 0 233.3 0 200 0C166.7 0 133.3 0 100 0C66.7 0 33.3 0 16.7 0L0 0Z" fill="#340d31"></path><path d="M0 196L16.7 205C33.3 214 66.7 232 100 243C133.3 254 166.7 258 200 259.5C233.3 261 266.7 260 300 264.3C333.3 268.7 366.7 278.3 400 280.7C433.3 283 466.7 278 500 267.5C533.3 257 566.7 241 583.3 233L600 225L600 0L583.3 0C566.7 0 533.3 0 500 0C466.7 0 433.3 0 400 0C366.7 0 333.3 0 300 0C266.7 0 233.3 0 200 0C166.7 0 133.3 0 100 0C66.7 0 33.3 0 16.7 0L0 0Z" fill="#59182d"></path><path d="M0 137L16.7 141.5C33.3 146 66.7 155 100 165.7C133.3 176.3 166.7 188.7 200 187.8C233.3 187 266.7 173 300 165.7C333.3 158.3 366.7 157.7 400 165C433.3 172.3 466.7 187.7 500 195.2C533.3 202.7 566.7 202.3 583.3 202.2L600 202L600 0L583.3 0C566.7 0 533.3 0 500 0C466.7 0 433.3 0 400 0C366.7 0 333.3 0 300 0C266.7 0 233.3 0 200 0C166.7 0 133.3 0 100 0C66.7 0 33.3 0 16.7 0L0 0Z" fill="#703223"></path><path d="M0 64L16.7 64.8C33.3 65.7 66.7 67.3 100 67.7C133.3 68 166.7 67 200 66.3C233.3 65.7 266.7 65.3 300 68C333.3 70.7 366.7 76.3 400 77.8C433.3 79.3 466.7 76.7 500 83.7C533.3 90.7 566.7 107.3 583.3 115.7L600 124L600 0L583.3 0C566.7 0 533.3 0 500 0C466.7 0 433.3 0 400 0C366.7 0 333.3 0 300 0C266.7 0 233.3 0 200 0C166.7 0 133.3 0 100 0C66.7 0 33.3 0 16.7 0L0 0Z" fill="#77541d"></path></svg>