<svg id="visual" viewBox="0 0 2000 400" width="2000" height="400" xmlns="http://www.w3.org/2000/svg" xmlns:xlink="http://www.w3.org/1999/xlink" version="1.1"><path d="M0 82L22.2 88.5C44.3 95 88.7 108 133.2 108.5C177.7 109 222.3 97 266.8 99C311.3 101 355.7 117 400 127.8C444.3 138.7 488.7 144.3 533.2 137.3C577.7 130.3 622.3 110.7 666.8 95.7C711.3 80.7 755.7 70.3 800 78.2C844.3 86 888.7 112 933.2 122.2C977.7 132.3 1022.3 126.7 1066.8 116C1111.3 105.3 1155.7 89.7 1200 80.2C1244.3 70.7 1288.7 67.3 1333.2 72.7C1377.7 78 1422.3 92 1466.8 107.2C1511.3 122.3 1555.7 138.7 1600 139.7C1644.3 140.7 1688.7 126.3 1733.2 113.5C1777.7 100.7 1822.3 89.3 1866.8 95.3C1911.3 101.3 1955.7 124.7 1977.8 136.3L2000 148L2000 401L1977.8 401C1955.7 401 1911.3 401 1866.8 401C1822.3 401 1777.7 401 1733.2 401C1688.7 401 1644.3 401 1600 401C1555.7 401 1511.3 401 1466.8 401C1422.3 401 1377.7 401 1333.2 401C1288.7 401 1244.3 401 1200 401C1155.7 401 1111.3 401 1066.8 401C1022.3 401 977.7 401 933.2 401C888.7 401 844.3 401 800 401C755.7 401 711.3 401 666.8 401C622.3 401 577.7 401 533.2 401C488.7 401 444.3 401 400 401C355.7 401 311.3 401 266.8 401C222.3 401 177.7 401 133.2 401C88.7 401 44.3 401 22.2 401L0 401Z" fill="#4b5b4e"></path><path d="M0 136L22.2 139.3C44.3 142.7 88.7 149.3 133.2 160.2C177.7 171 222.3 186 266.8 181.3C311.3 176.7 355.7 152.3 400 144C444.3 135.7 488.7 143.3 533.2 156.5C577.7 169.7 622.3 188.3 666.8 192.2C711.3 196 755.7 185 800 175.2C844.3 165.3 888.7 156.7 933.2 148C977.7 139.3 1022.3 130.7 1066.8 127.7C1111.3 124.7 1155.7 127.3 1200 135.8C1244.3 144.3 1288.7 158.7 1333.2 165.7C1377.7 172.7 1422.3 172.3 1466.8 178.7C1511.3 185 1555.7 198 1600 201.3C1644.3 204.7 1688.7 198.3 1733.2 185.5C1777.7 172.7 1822.3 153.3 1866.8 154.5C1911.3 155.7 1955.7 177.3 1977.8 188.2L2000 199L2000 401L1977.8 401C1955.7 401 1911.3 401 1866.8 401C1822.3 401 1777.7 401 1733.2 401C1688.7 401 1644.3 401 1600 401C1555.7 401 1511.3 401 1466.8 401C1422.3 401 1377.7 401 1333.2 401C1288.7 401 1244.3 401 1200 401C1155.7 401 1111.3 401 1066.8 401C1022.3 401 977.7 401 933.2 401C888.7 401 844.3 401 800 401C755.7 401 711.3 401 666.8 401C622.3 401 577.7 401 533.2 401C488.7 401 444.3 401 400 401C355.7 401 311.3 401 266.8 401C222.3 401 177.7 401 133.2 401C88.7 401 44.3 401 22.2 401L0 401Z" fill="#274945"></path><path d="M0 272L22.2 259C44.3 246 88.7 220 133.2 206.5C177.7 193 222.3 192 266.8 199C311.3 206 355.7 221 400 230C444.3 239 488.7 242 533.2 234.7C577.7 227.3 622.3 209.7 666.8 206.3C711.3 203 755.7 214 800 222.8C844.3 231.7 888.7 238.3 933.2 237.3C977.7 236.3 1022.3 227.7 1066.8 229.8C1111.3 232 1155.7 245 1200 250.7C1244.3 256.3 1288.7 254.7 1333.2 247.5C1377.7 240.3 1422.3 227.7 1466.8 217.7C1511.3 207.7 1555.7 200.3 1600 198C1644.3 195.7 1688.7 198.3 1733.2 204.5C1777.7 210.7 1822.3 220.3 1866.8 221.3C1911.3 222.3 1955.7 214.7 1977.8 210.8L2000 207L2000 401L1977.8 401C1955.7 401 1911.3 401 1866.8 401C1822.3 401 1777.7 401 1733.2 401C1688.7 401 1644.3 401 1600 401C1555.7 401 1511.3 401 1466.8 401C1422.3 401 1377.7 401 1333.2 401C1288.7 401 1244.3 401 1200 401C1155.7 401 1111.3 401 1066.8 401C1022.3 401 977.7 401 933.2 401C888.7 401 844.3 401 800 401C755.7 401 711.3 401 666.8 401C622.3 401 577.7 401 533.2 401C488.7 401 444.3 401 400 401C355.7 401 311.3 401 266.8 401C222.3 401 177.7 401 133.2 401C88.7 401 44.3 401 22.2 401L0 401Z" fill="#003540"></path><path d="M0 264L22.2 264.3C44.3 264.7 88.7 265.3 133.2 270.7C177.7 276 222.3 286 266.8 284.5C311.3 283 355.7 270 400 263.5C444.3 257 488.7 257 533.2 266.3C577.7 275.7 622.3 294.3 666.8 292.5C711.3 290.7 755.7 268.3 800 267.7C844.3 267 888.7 288 933.2 297.5C977.7 307 1022.3 305 1066.8 302.8C1111.3 300.7 1155.7 298.3 1200 295.2C1244.3 292 1288.7 288 1333.2 279.3C1377.7 270.7 1422.3 257.3 1466.8 253.3C1511.3 249.3 1555.7 254.7 1600 264.8C1644.3 275 1688.7 290 1733.2 296.8C1777.7 303.7 1822.3 302.3 1866.8 304.3C1911.3 306.3 1955.7 311.7 1977.8 314.3L2000 317L2000 401L1977.8 401C1955.7 401 1911.3 401 1866.8 401C1822.3 401 1777.7 401 1733.2 401C1688.7 401 1644.3 401 1600 401C1555.7 401 1511.3 401 1466.8 401C1422.3 401 1377.7 401 1333.2 401C1288.7 401 1244.3 401 1200 401C1155.7 401 1111.3 401 1066.8 401C1022.3 401 977.7 401 933.2 401C888.7 401 844.3 401 800 401C755.7 401 711.3 401 666.8 401C622.3 401 577.7 401 533.2 401C488.7 401 444.3 401 400 401C355.7 401 311.3 401 266.8 401C222.3 401 177.7 401 133.2 401C88.7 401 44.3 401 22.2 401L0 401Z" fill="#002039"></path><path d="M0 358L22.2 352.7C44.3 347.3 88.7 336.7 133.2 333.7C177.7 330.7 222.3 335.3 266.8 340.3C311.3 345.3 355.7 350.7 400 352.2C444.3 353.7 488.7 351.3 533.2 346.7C577.7 342 622.3 335 666.8 330.5C711.3 326 755.7 324 800 323C844.3 322 888.7 322 933.2 325.8C977.7 329.7 1022.3 337.3 1066.8 335.7C1111.3 334 1155.7 323 1200 322.3C1244.3 321.7 1288.7 331.3 1333.2 337.7C1377.7 344 1422.3 347 1466.8 343.2C1511.3 339.3 1555.7 328.7 1600 331.2C1644.3 333.7 1688.7 349.3 1733.2 351.2C1777.7 353 1822.3 341 1866.8 335.2C1911.3 329.3 1955.7 329.7 1977.8 329.8L2000 330L2000 401L1977.8 401C1955.7 401 1911.3 401 1866.8 401C1822.3 401 1777.7 401 1733.2 401C1688.7 401 1644.3 401 1600 401C1555.7 401 1511.3 401 1466.8 401C1422.3 401 1377.7 401 1333.2 401C1288.7 401 1244.3 401 1200 401C1155.7 401 1111.3 401 1066.8 401C1022.3 401 977.7 401 933.2 401C888.7 401 844.3 401 800 401C755.7 401 711.3 401 666.8 401C622.3 401 577.7 401 533.2 401C488.7 401 444.3 401 400 401C355.7 401 311.3 401 266.8 401C222.3 401 177.7 401 133.2 401C88.7 401 44.3 401 22.2 401L0 401Z" fill="#030029"></path></svg>