<svg id="visual" viewBox="0 0 2000 400" width="2000" height="400" xmlns="http://www.w3.org/2000/svg" xmlns:xlink="http://www.w3.org/1999/xlink" version="1.1"><path d="M0 71L22.2 70.2C44.3 69.3 88.7 67.7 133.2 76.8C177.7 86 222.3 106 266.8 115.7C311.3 125.3 355.7 124.7 400 127.3C444.3 130 488.7 136 533.2 127.5C577.7 119 622.3 96 666.8 96.2C711.3 96.3 755.7 119.7 800 130.3C844.3 141 888.7 139 933.2 132.8C977.7 126.7 1022.3 116.3 1066.8 108.3C1111.3 100.3 1155.7 94.7 1200 100.5C1244.3 106.3 1288.7 123.7 1333.2 135.8C1377.7 148 1422.3 155 1466.8 150.3C1511.3 145.7 1555.7 129.3 1600 120.7C1644.3 112 1688.7 111 1733.2 115.3C1777.7 119.7 1822.3 129.3 1866.8 130C1911.3 130.7 1955.7 122.3 1977.8 118.2L2000 114L2000 401L1977.8 401C1955.7 401 1911.3 401 1866.8 401C1822.3 401 1777.7 401 1733.2 401C1688.7 401 1644.3 401 1600 401C1555.7 401 1511.3 401 1466.8 401C1422.3 401 1377.7 401 1333.2 401C1288.7 401 1244.3 401 1200 401C1155.7 401 1111.3 401 1066.8 401C1022.3 401 977.7 401 933.2 401C888.7 401 844.3 401 800 401C755.7 401 711.3 401 666.8 401C622.3 401 577.7 401 533.2 401C488.7 401 444.3 401 400 401C355.7 401 311.3 401 266.8 401C222.3 401 177.7 401 133.2 401C88.7 401 44.3 401 22.2 401L0 401Z" fill="#4b5b4e"></path><path d="M0 158L22.2 158.8C44.3 159.7 88.7 161.3 133.2 157C177.7 152.7 222.3 142.3 266.8 143.7C311.3 145 355.7 158 400 163.7C444.3 169.3 488.7 167.7 533.2 174.8C577.7 182 622.3 198 666.8 201.7C711.3 205.3 755.7 196.7 800 194.5C844.3 192.3 888.7 196.7 933.2 191C977.7 185.3 1022.3 169.7 1066.8 164.8C1111.3 160 1155.7 166 1200 161.8C1244.3 157.7 1288.7 143.3 1333.2 151.8C1377.7 160.3 1422.3 191.7 1466.8 196.5C1511.3 201.3 1555.7 179.7 1600 168.3C1644.3 157 1688.7 156 1733.2 164.3C1777.7 172.7 1822.3 190.3 1866.8 195.2C1911.3 200 1955.7 192 1977.8 188L2000 184L2000 401L1977.8 401C1955.7 401 1911.3 401 1866.8 401C1822.3 401 1777.7 401 1733.2 401C1688.7 401 1644.3 401 1600 401C1555.7 401 1511.3 401 1466.8 401C1422.3 401 1377.7 401 1333.2 401C1288.7 401 1244.3 401 1200 401C1155.7 401 1111.3 401 1066.8 401C1022.3 401 977.7 401 933.2 401C888.7 401 844.3 401 800 401C755.7 401 711.3 401 666.8 401C622.3 401 577.7 401 533.2 401C488.7 401 444.3 401 400 401C355.7 401 311.3 401 266.8 401C222.3 401 177.7 401 133.2 401C88.7 401 44.3 401 22.2 401L0 401Z" fill="#274945"></path><path d="M0 251L22.2 244.3C44.3 237.7 88.7 224.3 133.2 215.7C177.7 207 222.3 203 266.8 198C311.3 193 355.7 187 400 195.2C444.3 203.3 488.7 225.7 533.2 230.3C577.7 235 622.3 222 666.8 219.8C711.3 217.7 755.7 226.3 800 229.5C844.3 232.7 888.7 230.3 933.2 236.2C977.7 242 1022.3 256 1066.8 258C1111.3 260 1155.7 250 1200 239.5C1244.3 229 1288.7 218 1333.2 211C1377.7 204 1422.3 201 1466.8 197.2C1511.3 193.3 1555.7 188.7 1600 199C1644.3 209.3 1688.7 234.7 1733.2 237.2C1777.7 239.7 1822.3 219.3 1866.8 214.5C1911.3 209.7 1955.7 220.3 1977.8 225.7L2000 231L2000 401L1977.8 401C1955.7 401 1911.3 401 1866.8 401C1822.3 401 1777.7 401 1733.2 401C1688.7 401 1644.3 401 1600 401C1555.7 401 1511.3 401 1466.8 401C1422.3 401 1377.7 401 1333.2 401C1288.7 401 1244.3 401 1200 401C1155.7 401 1111.3 401 1066.8 401C1022.3 401 977.7 401 933.2 401C888.7 401 844.3 401 800 401C755.7 401 711.3 401 666.8 401C622.3 401 577.7 401 533.2 401C488.7 401 444.3 401 400 401C355.7 401 311.3 401 266.8 401C222.3 401 177.7 401 133.2 401C88.7 401 44.3 401 22.2 401L0 401Z" fill="#003540"></path><path d="M0 295L22.2 294.5C44.3 294 88.7 293 133.2 286.2C177.7 279.3 222.3 266.7 266.8 264.2C311.3 261.7 355.7 269.3 400 269.7C444.3 270 488.7 263 533.2 258C577.7 253 622.3 250 666.8 248.8C711.3 247.7 755.7 248.3 800 253.3C844.3 258.3 888.7 267.7 933.2 276.5C977.7 285.3 1022.3 293.7 1066.8 294.2C1111.3 294.7 1155.7 287.3 1200 280.5C1244.3 273.7 1288.7 267.3 1333.2 260.8C1377.7 254.3 1422.3 247.7 1466.8 252.3C1511.3 257 1555.7 273 1600 275.8C1644.3 278.7 1688.7 268.3 1733.2 260.8C1777.7 253.3 1822.3 248.7 1866.8 253.3C1911.3 258 1955.7 272 1977.8 279L2000 286L2000 401L1977.8 401C1955.7 401 1911.3 401 1866.8 401C1822.3 401 1777.7 401 1733.2 401C1688.7 401 1644.3 401 1600 401C1555.7 401 1511.3 401 1466.8 401C1422.3 401 1377.7 401 1333.2 401C1288.7 401 1244.3 401 1200 401C1155.7 401 1111.3 401 1066.8 401C1022.3 401 977.7 401 933.2 401C888.7 401 844.3 401 800 401C755.7 401 711.3 401 666.8 401C622.3 401 577.7 401 533.2 401C488.7 401 444.3 401 400 401C355.7 401 311.3 401 266.8 401C222.3 401 177.7 401 133.2 401C88.7 401 44.3 401 22.2 401L0 401Z" fill="#002039"></path><path d="M0 303L22.2 310.3C44.3 317.7 88.7 332.3 133.2 332.2C177.7 332 222.3 317 266.8 318.8C311.3 320.7 355.7 339.3 400 346.3C444.3 353.3 488.7 348.7 533.2 341.2C577.7 333.7 622.3 323.3 666.8 316.2C711.3 309 755.7 305 800 308.3C844.3 311.7 888.7 322.3 933.2 330.5C977.7 338.7 1022.3 344.3 1066.8 340C1111.3 335.7 1155.7 321.3 1200 315.7C1244.3 310 1288.7 313 1333.2 316.3C1377.7 319.7 1422.3 323.3 1466.8 323C1511.3 322.7 1555.7 318.3 1600 321.8C1644.3 325.3 1688.7 336.7 1733.2 339.8C1777.7 343 1822.3 338 1866.8 337.8C1911.3 337.7 1955.7 342.3 1977.8 344.7L2000 347L2000 401L1977.8 401C1955.7 401 1911.3 401 1866.8 401C1822.3 401 1777.7 401 1733.2 401C1688.7 401 1644.3 401 1600 401C1555.7 401 1511.3 401 1466.8 401C1422.3 401 1377.7 401 1333.2 401C1288.7 401 1244.3 401 1200 401C1155.7 401 1111.3 401 1066.8 401C1022.3 401 977.7 401 933.2 401C888.7 401 844.3 401 800 401C755.7 401 711.3 401 666.8 401C622.3 401 577.7 401 533.2 401C488.7 401 444.3 401 400 401C355.7 401 311.3 401 266.8 401C222.3 401 177.7 401 133.2 401C88.7 401 44.3 401 22.2 401L0 401Z" fill="#030029"></path></svg>