<svg id="visual" viewBox="0 0 2000 400" width="2000" height="400" xmlns="http://www.w3.org/2000/svg" xmlns:xlink="http://www.w3.org/1999/xlink" version="1.1"><path d="M0 83L22.2 90.2C44.3 97.3 88.7 111.7 133.2 113.8C177.7 116 222.3 106 266.8 104.7C311.3 103.3 355.7 110.7 400 116.3C444.3 122 488.7 126 533.2 120.3C577.7 114.7 622.3 99.3 666.8 90.2C711.3 81 755.7 78 800 74.7C844.3 71.3 888.7 67.7 933.2 66C977.7 64.3 1022.3 64.7 1066.8 80.5C1111.3 96.3 1155.7 127.7 1200 127.2C1244.3 126.7 1288.7 94.3 1333.2 90.5C1377.7 86.7 1422.3 111.3 1466.8 120.3C1511.3 129.3 1555.7 122.7 1600 113.8C1644.3 105 1688.7 94 1733.2 94.5C1777.7 95 1822.3 107 1866.8 108.7C1911.3 110.3 1955.7 101.7 1977.8 97.3L2000 93L2000 401L1977.8 401C1955.7 401 1911.3 401 1866.8 401C1822.3 401 1777.7 401 1733.2 401C1688.7 401 1644.3 401 1600 401C1555.7 401 1511.3 401 1466.8 401C1422.3 401 1377.7 401 1333.2 401C1288.7 401 1244.3 401 1200 401C1155.7 401 1111.3 401 1066.8 401C1022.3 401 977.7 401 933.2 401C888.7 401 844.3 401 800 401C755.7 401 711.3 401 666.8 401C622.3 401 577.7 401 533.2 401C488.7 401 444.3 401 400 401C355.7 401 311.3 401 266.8 401C222.3 401 177.7 401 133.2 401C88.7 401 44.3 401 22.2 401L0 401Z" fill="#4b5b4e"></path><path d="M0 192L22.2 192.2C44.3 192.3 88.7 192.7 133.2 191.5C177.7 190.3 222.3 187.7 266.8 189.8C311.3 192 355.7 199 400 196.3C444.3 193.7 488.7 181.3 533.2 178.3C577.7 175.3 622.3 181.7 666.8 176.2C711.3 170.7 755.7 153.3 800 148.3C844.3 143.3 888.7 150.7 933.2 165.2C977.7 179.7 1022.3 201.3 1066.8 205C1111.3 208.7 1155.7 194.3 1200 187.8C1244.3 181.3 1288.7 182.7 1333.2 173C1377.7 163.3 1422.3 142.7 1466.8 140.8C1511.3 139 1555.7 156 1600 168.8C1644.3 181.7 1688.7 190.3 1733.2 183C1777.7 175.7 1822.3 152.3 1866.8 145C1911.3 137.7 1955.7 146.3 1977.8 150.7L2000 155L2000 401L1977.8 401C1955.7 401 1911.3 401 1866.8 401C1822.3 401 1777.7 401 1733.2 401C1688.7 401 1644.3 401 1600 401C1555.7 401 1511.3 401 1466.8 401C1422.3 401 1377.7 401 1333.2 401C1288.7 401 1244.3 401 1200 401C1155.7 401 1111.3 401 1066.8 401C1022.3 401 977.7 401 933.2 401C888.7 401 844.3 401 800 401C755.7 401 711.3 401 666.8 401C622.3 401 577.7 401 533.2 401C488.7 401 444.3 401 400 401C355.7 401 311.3 401 266.8 401C222.3 401 177.7 401 133.2 401C88.7 401 44.3 401 22.2 401L0 401Z" fill="#274945"></path><path d="M0 246L22.2 237.7C44.3 229.3 88.7 212.7 133.2 213.7C177.7 214.7 222.3 233.3 266.8 232.8C311.3 232.3 355.7 212.7 400 206.8C444.3 201 488.7 209 533.2 216.5C577.7 224 622.3 231 666.8 238C711.3 245 755.7 252 800 246C844.3 240 888.7 221 933.2 221.5C977.7 222 1022.3 242 1066.8 249.2C1111.3 256.3 1155.7 250.7 1200 250.5C1244.3 250.3 1288.7 255.7 1333.2 256.8C1377.7 258 1422.3 255 1466.8 242.5C1511.3 230 1555.7 208 1600 210.3C1644.3 212.7 1688.7 239.3 1733.2 247.2C1777.7 255 1822.3 244 1866.8 229.8C1911.3 215.7 1955.7 198.3 1977.8 189.7L2000 181L2000 401L1977.8 401C1955.7 401 1911.3 401 1866.8 401C1822.3 401 1777.7 401 1733.2 401C1688.7 401 1644.3 401 1600 401C1555.7 401 1511.3 401 1466.8 401C1422.3 401 1377.7 401 1333.2 401C1288.7 401 1244.3 401 1200 401C1155.7 401 1111.3 401 1066.8 401C1022.3 401 977.7 401 933.2 401C888.7 401 844.3 401 800 401C755.7 401 711.3 401 666.8 401C622.3 401 577.7 401 533.2 401C488.7 401 444.3 401 400 401C355.7 401 311.3 401 266.8 401C222.3 401 177.7 401 133.2 401C88.7 401 44.3 401 22.2 401L0 401Z" fill="#003540"></path><path d="M0 281L22.2 277C44.3 273 88.7 265 133.2 268.5C177.7 272 222.3 287 266.8 287.8C311.3 288.7 355.7 275.3 400 276.2C444.3 277 488.7 292 533.2 291.8C577.7 291.7 622.3 276.3 666.8 275C711.3 273.7 755.7 286.3 800 293.7C844.3 301 888.7 303 933.2 305.3C977.7 307.7 1022.3 310.3 1066.8 299.5C1111.3 288.7 1155.7 264.3 1200 255.2C1244.3 246 1288.7 252 1333.2 262.5C1377.7 273 1422.3 288 1466.8 291.5C1511.3 295 1555.7 287 1600 279.8C1644.3 272.7 1688.7 266.3 1733.2 271.8C1777.7 277.3 1822.3 294.7 1866.8 298.7C1911.3 302.7 1955.7 293.3 1977.8 288.7L2000 284L2000 401L1977.8 401C1955.7 401 1911.3 401 1866.8 401C1822.3 401 1777.7 401 1733.2 401C1688.7 401 1644.3 401 1600 401C1555.7 401 1511.3 401 1466.8 401C1422.3 401 1377.7 401 1333.2 401C1288.7 401 1244.3 401 1200 401C1155.7 401 1111.3 401 1066.8 401C1022.3 401 977.7 401 933.2 401C888.7 401 844.3 401 800 401C755.7 401 711.3 401 666.8 401C622.3 401 577.7 401 533.2 401C488.7 401 444.3 401 400 401C355.7 401 311.3 401 266.8 401C222.3 401 177.7 401 133.2 401C88.7 401 44.3 401 22.2 401L0 401Z" fill="#002039"></path><path d="M0 307L22.2 310.7C44.3 314.3 88.7 321.7 133.2 324.5C177.7 327.3 222.3 325.7 266.8 323.3C311.3 321 355.7 318 400 317.2C444.3 316.3 488.7 317.7 533.2 325.3C577.7 333 622.3 347 666.8 346.5C711.3 346 755.7 331 800 325.8C844.3 320.7 888.7 325.3 933.2 325.2C977.7 325 1022.3 320 1066.8 315.7C1111.3 311.3 1155.7 307.7 1200 316C1244.3 324.3 1288.7 344.7 1333.2 347.3C1377.7 350 1422.3 335 1466.8 326.3C1511.3 317.7 1555.7 315.3 1600 320.7C1644.3 326 1688.7 339 1733.2 344.3C1777.7 349.7 1822.3 347.3 1866.8 342.3C1911.3 337.3 1955.7 329.7 1977.8 325.8L2000 322L2000 401L1977.8 401C1955.7 401 1911.3 401 1866.8 401C1822.3 401 1777.7 401 1733.2 401C1688.7 401 1644.3 401 1600 401C1555.7 401 1511.3 401 1466.8 401C1422.3 401 1377.7 401 1333.2 401C1288.7 401 1244.3 401 1200 401C1155.7 401 1111.3 401 1066.8 401C1022.3 401 977.7 401 933.2 401C888.7 401 844.3 401 800 401C755.7 401 711.3 401 666.8 401C622.3 401 577.7 401 533.2 401C488.7 401 444.3 401 400 401C355.7 401 311.3 401 266.8 401C222.3 401 177.7 401 133.2 401C88.7 401 44.3 401 22.2 401L0 401Z" fill="#030029"></path></svg>