<svg id="visual" viewBox="0 0 800 100" width="800" height="100" xmlns="http://www.w3.org/2000/svg" xmlns:xlink="http://www.w3.org/1999/xlink" version="1.1"><path d="M0 45L5.8 47C11.7 49 23.3 53 35 49.2C46.7 45.3 58.3 33.7 69.8 30C81.3 26.3 92.7 30.7 104.2 36C115.7 41.3 127.3 47.7 139 48.8C150.7 50 162.3 46 174 46.7C185.7 47.3 197.3 52.7 208.8 50.7C220.3 48.7 231.7 39.3 243.2 34.3C254.7 29.3 266.3 28.7 278 30.7C289.7 32.7 301.3 37.3 313 37.8C324.7 38.3 336.3 34.7 348 36.8C359.7 39 371.3 47 382.8 51.5C394.3 56 405.7 57 417.2 57.2C428.7 57.3 440.3 56.7 452 51.2C463.7 45.7 475.3 35.3 487 33.8C498.7 32.3 510.3 39.7 522 39.8C533.7 40 545.3 33 556.8 33.7C568.3 34.3 579.7 42.7 591.2 45.2C602.7 47.7 614.3 44.3 626 45.3C637.7 46.3 649.3 51.7 661 50.2C672.7 48.7 684.3 40.3 695.8 35.7C707.3 31 718.7 30 730.2 31.8C741.7 33.7 753.3 38.3 765 42.5C776.7 46.7 788.3 50.3 794.2 52.2L800 54" fill="none" stroke-linecap="round" stroke-linejoin="miter" stroke="#030029" stroke-width="40"></path></svg>