<svg id="visual" viewBox="0 0 800 100" width="800" height="100" xmlns="http://www.w3.org/2000/svg" xmlns:xlink="http://www.w3.org/1999/xlink" version="1.1"><path d="M0 23L5.8 24.2C11.7 25.3 23.3 27.7 35 33.5C46.7 39.3 58.3 48.7 69.8 48.3C81.3 48 92.7 38 104.2 34C115.7 30 127.3 32 139 34.8C150.7 37.7 162.3 41.3 174 40.3C185.7 39.3 197.3 33.7 208.8 31.3C220.3 29 231.7 30 243.2 29C254.7 28 266.3 25 278 29C289.7 33 301.3 44 313 48.8C324.7 53.7 336.3 52.3 348 48.8C359.7 45.3 371.3 39.7 382.8 40.2C394.3 40.7 405.7 47.3 417.2 48C428.7 48.7 440.3 43.3 452 42.5C463.7 41.7 475.3 45.3 487 45.8C498.7 46.3 510.3 43.7 522 40.7C533.7 37.7 545.3 34.3 556.8 35.7C568.3 37 579.7 43 591.2 44.7C602.7 46.3 614.3 43.7 626 43.2C637.7 42.7 649.3 44.3 661 42.3C672.7 40.3 684.3 34.7 695.8 33C707.3 31.3 718.7 33.7 730.2 33.3C741.7 33 753.3 30 765 30.8C776.7 31.7 788.3 36.3 794.2 38.7L800 41" fill="none" stroke-linecap="round" stroke-linejoin="miter" stroke="#09200d" stroke-width="40"></path></svg>